<?xml version="1.0" encoding="UTF-8"?>
<svg viewBox="0 0 708.6614 496.06298" xmlns="http://www.w3.org/2000/svg">
 <path d="m0-2e-6h708.66v496.06h-708.66z" fill="#000080" fill-rule="evenodd"/>
 <path transform="matrix(.44451 0 0 .44451 353.77 66.397)" d="m615.42 171.29-67.787-50.157-68.435 49.269 26.755-79.968-68.006-49.86 84.322 0.7334 26.405-80.085 25.36 80.422 84.324 0.3648-68.649 48.97 25.711 80.311z" fill="#ff0" fill-rule="evenodd"/>
 <path transform="matrix(.18301 0 0 .18301 23.244 184.36)" d="m615.42 171.29-67.787-50.157-68.435 49.269 26.755-79.968-68.006-49.86 84.322 0.7334 26.405-80.085 25.36 80.422 84.324 0.3648-68.649 48.97 25.711 80.311z" fill="#ff0" fill-rule="evenodd"/>
 <path transform="matrix(.18301 0 0 .18301 103.19 214.05)" d="m615.42 171.29-67.787-50.157-68.435 49.269 26.755-79.968-68.006-49.86 84.322 0.7334 26.405-80.085 25.36 80.422 84.324 0.3648-68.649 48.97 25.711 80.311z" fill="#ff0" fill-rule="evenodd"/>
 <path transform="matrix(.18301 0 0 .18301 148.75 257.57)" d="m615.42 171.29-67.787-50.157-68.435 49.269 26.755-79.968-68.006-49.86 84.322 0.7334 26.405-80.085 25.36 80.422 84.324 0.3648-68.649 48.97 25.711 80.311z" fill="#ff0" fill-rule="evenodd"/>
 <path transform="matrix(.18301 0 0 .18301 196.91 303.25)" d="m615.42 171.29-67.787-50.157-68.435 49.269 26.755-79.968-68.006-49.86 84.322 0.7334 26.405-80.085 25.36 80.422 84.324 0.3648-68.649 48.97 25.711 80.311z" fill="#ff0" fill-rule="evenodd"/>
 <path transform="matrix(.18301 0 0 .18301 185.61 376.61)" d="m615.42 171.29-67.787-50.157-68.435 49.269 26.755-79.968-68.006-49.86 84.322 0.7334 26.405-80.085 25.36 80.422 84.324 0.3648-68.649 48.97 25.711 80.311z" fill="#ff0" fill-rule="evenodd"/>
 <path transform="matrix(.18301 0 0 .18301 320.26 351.13)" d="m615.42 171.29-67.787-50.157-68.435 49.269 26.755-79.968-68.006-49.86 84.322 0.7334 26.405-80.085 25.36 80.422 84.324 0.3648-68.649 48.97 25.711 80.311z" fill="#ff0" fill-rule="evenodd"/>
 <path transform="matrix(.18301 0 0 .18301 281.36 410.61)" d="m615.42 171.29-67.787-50.157-68.435 49.269 26.755-79.968-68.006-49.86 84.322 0.7334 26.405-80.085 25.36 80.422 84.324 0.3648-68.649 48.97 25.711 80.311z" fill="#ff0" fill-rule="evenodd"/>
</svg>
