<?xml version="1.0" encoding="UTF-8"?>
<svg viewBox="0 0 744.09448 496.06299" xmlns="http://www.w3.org/2000/svg">
 <path d="m0 248.03h744.09v248.03h-744.09z" fill="#192f5d" fill-rule="evenodd"/>
 <path d="m0 0h744.09v248.03h-744.09z" fill="#bd3d44" fill-rule="evenodd"/>
 <path transform="translate(335.76 245.61)" d="m-335.99-90.159 372.16 92.489-372.1-185.55-0.064 93.062z" fill="#ffd608" fill-rule="evenodd"/>
 <path transform="translate(335.76 245.61)" d="m-228.88-245.92 265.1 248.19-166.02-248.3-99.082 0.107z" fill="#ffd608" fill-rule="evenodd"/>
 <path transform="translate(335.76 245.61)" d="m-53.038-246.03 89.335 248.36-31.082-248.18-58.254-0.172z" fill="#ffd608" fill-rule="evenodd"/>
 <path transform="matrix(-1 0 0 1 408.18 245.61)" d="m-335.31-90.159 371.48 92.489-371.41-185.55-0.065 93.062z" fill="#ffd608" fill-rule="evenodd"/>
 <path transform="matrix(-1 0 0 1 408.27 245.61)" d="m-228.88-245.24 265.1 247.51-166.02-248.3-99.082 0.791z" fill="#ffd608" fill-rule="evenodd"/>
 <path transform="matrix(-1 0 0 1 408.37 245.61)" d="m-53.038-246.03 89.335 248.36-31.082-248.18-58.254-0.172z" fill="#ffd608" fill-rule="evenodd"/>
 <path transform="matrix(.65515 .011378 -.011824 .68087 372.45 246.81)" d="m145.35-50.874-86.93 68.413 34.877 104.98-91.928-61.535-89.064 65.61 30.116-106.44-89.922-64.431 110.54-4.2512 33.49-105.43 38.202 103.82 110.62-0.72922z" fill="#b87333" fill-rule="evenodd"/>
</svg>
