<?xml version="1.0" encoding="UTF-8"?>
<svg viewBox="0 0 744.09447 496.06298" xmlns="http://www.w3.org/2000/svg">
 <path d="m0-1.6e-4h744.09v496.06h-744.09z" fill="#c03" fill-rule="evenodd"/>
 <path transform="matrix(.99377 0 0 .99377 -757.81 -5.0931)" d="m781.2 252.57 354.6 238.19 357.54-238.65-357.54-233.35-354.6 233.81z" fill="#009" fill-rule="evenodd" stroke="#000" stroke-width="3.1446"/>
 <path transform="matrix(.74728 0 0 .74728 -477.19 57.624)" d="m781.2 252.57 354.6 238.19 357.54-238.65-357.54-233.35-354.6 233.81z" fill="#fff" fill-rule="evenodd" stroke="#000" stroke-width="3.3288"/>
 <path transform="matrix(1.7287 0 0 1.7287 -1558.8 -12.851)" d="m1124.8 46.827-7.73-5.5899-7.7 5.6164 2.93-9.0722-7.73-5.5959 9.54-0.017 2.93-9.0749 2.96 9.0617 9.54-0.0127-7.7 5.6174 2.96 9.0671z" fill="#fff" fill-rule="evenodd" stroke="#000" stroke-dashoffset="5" stroke-width=".625"/>
 <path transform="matrix(1.4509 -.93982 .93982 1.4509 -1333 1075.4)" d="m1124.8 46.827-7.73-5.5899-7.7 5.6164 2.93-9.0722-7.73-5.5959 9.54-0.017 2.93-9.0749 2.96 9.0617 9.54-0.0127-7.7 5.6174 2.96 9.0671z" fill="#fff" fill-rule="evenodd" stroke="#000" stroke-dashoffset="5" stroke-width=".625"/>
 <path transform="matrix(1.4509 -.93982 .93982 1.4509 -1382.1 1107)" d="m1124.8 46.827-7.73-5.5899-7.7 5.6164 2.93-9.0722-7.73-5.5959 9.54-0.017 2.93-9.0749 2.96 9.0617 9.54-0.0127-7.7 5.6174 2.96 9.0671z" fill="#fff" fill-rule="evenodd" stroke="#000" stroke-dashoffset="5" stroke-width=".625"/>
 <path transform="matrix(1.4509 -.93982 .93982 1.4509 -1428.6 1138.5)" d="m1124.8 46.827-7.73-5.5899-7.7 5.6164 2.93-9.0722-7.73-5.5959 9.54-0.017 2.93-9.0749 2.96 9.0617 9.54-0.0127-7.7 5.6174 2.96 9.0671z" fill="#fff" fill-rule="evenodd" stroke="#000" stroke-dashoffset="5" stroke-width=".625"/>
 <path transform="matrix(1.4509 -.93982 .93982 1.4509 -1475.5 1169.5)" d="m1124.8 46.827-7.73-5.5899-7.7 5.6164 2.93-9.0722-7.73-5.5959 9.54-0.017 2.93-9.0749 2.96 9.0617 9.54-0.0127-7.7 5.6174 2.96 9.0671z" fill="#fff" fill-rule="evenodd" stroke="#000" stroke-dashoffset="5" stroke-width=".625"/>
 <path transform="matrix(1.4509 -.93982 .93982 1.4509 -1523.9 1200.1)" d="m1124.8 46.827-7.73-5.5899-7.7 5.6164 2.93-9.0722-7.73-5.5959 9.54-0.017 2.93-9.0749 2.96 9.0617 9.54-0.0127-7.7 5.6174 2.96 9.0671z" fill="#fff" fill-rule="evenodd" stroke="#000" stroke-dashoffset="5" stroke-width=".625"/>
 <path transform="matrix(-1.4509 -.93982 -.93982 1.4509 2081.8 1078.1)" d="m1124.8 46.827-7.73-5.5899-7.7 5.6164 2.93-9.0722-7.73-5.5959 9.54-0.017 2.93-9.0749 2.96 9.0617 9.54-0.0127-7.7 5.6174 2.96 9.0671z" fill="#fff" fill-rule="evenodd" stroke="#000" stroke-dashoffset="5" stroke-width=".625"/>
 <path transform="matrix(-1.4509 -.93982 -.93982 1.4509 2130.8 1109.6)" d="m1124.8 46.827-7.73-5.5899-7.7 5.6164 2.93-9.0722-7.73-5.5959 9.54-0.017 2.93-9.0749 2.96 9.0617 9.54-0.0127-7.7 5.6174 2.96 9.0671z" fill="#fff" fill-rule="evenodd" stroke="#000" stroke-dashoffset="5" stroke-width=".625"/>
 <path transform="matrix(-1.4509 -.93982 -.93982 1.4509 2177.4 1141.2)" d="m1124.8 46.827-7.73-5.5899-7.7 5.6164 2.93-9.0722-7.73-5.5959 9.54-0.017 2.93-9.0749 2.96 9.0617 9.54-0.0127-7.7 5.6174 2.96 9.0671z" fill="#fff" fill-rule="evenodd" stroke="#000" stroke-dashoffset="5" stroke-width=".625"/>
 <path transform="matrix(-1.4509 -.93982 -.93982 1.4509 2224.3 1172.1)" d="m1124.8 46.827-7.73-5.5899-7.7 5.6164 2.93-9.0722-7.73-5.5959 9.54-0.017 2.93-9.0749 2.96 9.0617 9.54-0.0127-7.7 5.6174 2.96 9.0671z" fill="#fff" fill-rule="evenodd" stroke="#000" stroke-dashoffset="5" stroke-width=".625"/>
 <path transform="matrix(-1.4509 -.93982 -.93982 1.4509 2272.7 1202.8)" d="m1124.8 46.827-7.73-5.5899-7.7 5.6164 2.93-9.0722-7.73-5.5959 9.54-0.017 2.93-9.0749 2.96 9.0617 9.54-0.0127-7.7 5.6174 2.96 9.0671z" fill="#fff" fill-rule="evenodd" stroke="#000" stroke-dashoffset="5" stroke-width=".625"/>
 <path transform="matrix(1.6644 -.467 .467 1.6644 -1765.6 738.66)" d="m1124.8 46.827-7.73-5.5899-7.7 5.6164 2.93-9.0722-7.73-5.5959 9.54-0.017 2.93-9.0749 2.96 9.0617 9.54-0.0127-7.7 5.6174 2.96 9.0671z" fill="#fff" fill-rule="evenodd" stroke="#000" stroke-dashoffset="5" stroke-width=".625"/>
 <path transform="matrix(1.6197 -.60406 .60406 1.6197 -1675.5 923.28)" d="m1124.8 46.827-7.73-5.5899-7.7 5.6164 2.93-9.0722-7.73-5.5959 9.54-0.017 2.93-9.0749 2.96 9.0617 9.54-0.0127-7.7 5.6174 2.96 9.0671z" fill="#fff" fill-rule="evenodd" stroke="#000" stroke-dashoffset="5" stroke-width=".625"/>
 <path transform="matrix(1.6644 -.467 .467 1.6644 -1544.6 888.04)" d="m1124.8 46.827-7.73-5.5899-7.7 5.6164 2.93-9.0722-7.73-5.5959 9.54-0.017 2.93-9.0749 2.96 9.0617 9.54-0.0127-7.7 5.6174 2.96 9.0671z" fill="#fff" fill-rule="evenodd" stroke="#000" stroke-dashoffset="5" stroke-width=".625"/>
 <path transform="matrix(1.5855 -.68898 .68898 1.5855 -1597 1049.8)" d="m1124.8 46.827-7.73-5.5899-7.7 5.6164 2.93-9.0722-7.73-5.5959 9.54-0.017 2.93-9.0749 2.96 9.0617 9.54-0.0127-7.7 5.6174 2.96 9.0671z" fill="#fff" fill-rule="evenodd" stroke="#000" stroke-dashoffset="5" stroke-width=".625"/>
 <path transform="matrix(1.6189 -.60629 .60629 1.6189 -1588 986.34)" d="m1124.8 46.827-7.73-5.5899-7.7 5.6164 2.93-9.0722-7.73-5.5959 9.54-0.017 2.93-9.0749 2.96 9.0617 9.54-0.0127-7.7 5.6174 2.96 9.0671z" fill="#fff" fill-rule="evenodd" stroke="#000" stroke-dashoffset="5" stroke-width=".625"/>
 <path transform="matrix(1.6138 -.61961 .61961 1.6138 -1540.4 1028.8)" d="m1124.8 46.827-7.73-5.5899-7.7 5.6164 2.93-9.0722-7.73-5.5959 9.54-0.017 2.93-9.0749 2.96 9.0617 9.54-0.0127-7.7 5.6174 2.96 9.0671z" fill="#fff" fill-rule="evenodd" stroke="#000" stroke-dashoffset="5" stroke-width=".625"/>
 <path transform="matrix(-1.6644 -.467 -.467 1.6644 2503.4 743.96)" d="m1124.8 46.827-7.73-5.5899-7.7 5.6164 2.93-9.0722-7.73-5.5959 9.54-0.017 2.93-9.0749 2.96 9.0617 9.54-0.0127-7.7 5.6174 2.96 9.0671z" fill="#fff" fill-rule="evenodd" stroke="#000" stroke-dashoffset="5" stroke-width=".625"/>
 <path transform="matrix(-1.6197 -.60406 -.60406 1.6197 2413.4 928.58)" d="m1124.8 46.827-7.73-5.5899-7.7 5.6164 2.93-9.0722-7.73-5.5959 9.54-0.017 2.93-9.0749 2.96 9.0617 9.54-0.0127-7.7 5.6174 2.96 9.0671z" fill="#fff" fill-rule="evenodd" stroke="#000" stroke-dashoffset="5" stroke-width=".625"/>
 <path transform="matrix(-1.6644 -.467 -.467 1.6644 2281.1 892.02)" d="m1124.8 46.827-7.73-5.5899-7.7 5.6164 2.93-9.0722-7.73-5.5959 9.54-0.017 2.93-9.0749 2.96 9.0617 9.54-0.0127-7.7 5.6174 2.96 9.0671z" fill="#fff" fill-rule="evenodd" stroke="#000" stroke-dashoffset="5" stroke-width=".625"/>
 <path transform="matrix(-1.5855 -.68898 -.68898 1.5855 2333.5 1055.1)" d="m1124.8 46.827-7.73-5.5899-7.7 5.6164 2.93-9.0722-7.73-5.5959 9.54-0.017 2.93-9.0749 2.96 9.0617 9.54-0.0127-7.7 5.6174 2.96 9.0671z" fill="#fff" fill-rule="evenodd" stroke="#000" stroke-dashoffset="5" stroke-width=".625"/>
 <path transform="matrix(-1.6189 -.60629 -.60629 1.6189 2324.6 990.76)" d="m1124.8 46.827-7.73-5.5899-7.7 5.6164 2.93-9.0722-7.73-5.5959 9.54-0.017 2.93-9.0749 2.96 9.0617 9.54-0.0127-7.7 5.6174 2.96 9.0671z" fill="#fff" fill-rule="evenodd" stroke="#000" stroke-dashoffset="5" stroke-width=".625"/>
 <path transform="matrix(-1.6138 -.61961 -.61961 1.6138 2277 1033.2)" d="m1124.8 46.827-7.73-5.5899-7.7 5.6164 2.93-9.0722-7.73-5.5959 9.54-0.017 2.93-9.0749 2.96 9.0617 9.54-0.0127-7.7 5.6174 2.96 9.0671z" fill="#fff" fill-rule="evenodd" stroke="#000" stroke-dashoffset="5" stroke-width=".625"/>
 <path transform="matrix(1.7287 .003527 -.0035273 1.7287 -1859.2 177.91)" d="m1124.8 46.827-7.73-5.5899-7.7 5.6164 2.93-9.0722-7.73-5.5959 9.54-0.017 2.93-9.0749 2.96 9.0617 9.54-0.0127-7.7 5.6174 2.96 9.0671z" fill="#fff" fill-rule="evenodd" stroke="#000" stroke-dashoffset="5" stroke-width=".625"/>
 <path transform="matrix(1.7287 .003527 -.0035273 1.7287 -1260.5 177.91)" d="m1124.8 46.827-7.73-5.5899-7.7 5.6164 2.93-9.0722-7.73-5.5959 9.54-0.017 2.93-9.0749 2.96 9.0617 9.54-0.0127-7.7 5.6174 2.96 9.0671z" fill="#fff" fill-rule="evenodd" stroke="#000" stroke-dashoffset="5" stroke-width=".625"/>
 <path transform="matrix(2.4683 .004923 -.0050364 2.4129 -2281.7 211.17)" d="m1124.8 46.827-7.73-5.5899-7.7 5.6164 2.93-9.0722-7.73-5.5959 9.54-0.017 2.93-9.0749 2.96 9.0617 9.54-0.0127-7.7 5.6174 2.96 9.0671z" fill="#009" fill-rule="evenodd" stroke="#000" stroke-dashoffset="5" stroke-width=".625"/>
 <path transform="matrix(2.4683 .004923 -.0050364 2.4129 -2494.8 203.67)" d="m1124.8 46.827-7.73-5.5899-7.7 5.6164 2.93-9.0722-7.73-5.5959 9.54-0.017 2.93-9.0749 2.96 9.0617 9.54-0.0127-7.7 5.6174 2.96 9.0671z" fill="#009" fill-rule="evenodd" stroke="#000" stroke-dashoffset="5" stroke-width=".625"/>
 <path transform="matrix(2.4683 .004923 -.0050364 2.4129 -2387.3 46.17)" d="m1124.8 46.827-7.73-5.5899-7.7 5.6164 2.93-9.0722-7.73-5.5959 9.54-0.017 2.93-9.0749 2.96 9.0617 9.54-0.0127-7.7 5.6174 2.96 9.0671z" fill="#009" fill-rule="evenodd" stroke="#000" stroke-dashoffset="5" stroke-width=".625"/>
 <path transform="matrix(-.7389 -2.3551 2.3023 -.72211 1109.4 3003.9)" d="m1124.8 46.827-7.73-5.5899-7.7 5.6164 2.93-9.0722-7.73-5.5959 9.54-0.017 2.93-9.0749 2.96 9.0617 9.54-0.0127-7.7 5.6174 2.96 9.0671z" fill="#009" fill-rule="evenodd" stroke="#000" stroke-dashoffset="5" stroke-width=".625"/>
 <path transform="matrix(1 0 0 1.0373 0 -1.5259e-5)" d="m521.309,208.684c0-3.551-.795-5.883-2.703-8.003-2.597-2.862-6.89-4.399-12.455-4.399-9.275,0-14.628,4.346-14.628,11.872 0,5.989 3.021,8.904 10.865,10.388l5.406,1.06c5.3,1.007 7.261,2.491 7.261,5.618 0,3.233-2.968,5.194-7.791,5.194-5.406,0-8.427-2.279-8.692-6.413h-7.738c.477,8.268 6.148,12.773 16.006,12.773 9.964,0 15.847-4.664 15.847-12.508 0-6.095-3.074-9.275-10.229-10.653l-6.042-1.166c-5.671-1.113-7.314-2.226-7.314-5.035 0-2.915 2.597-4.77 6.678-4.77 5.035,0 7.844,2.12 8.109,6.042h7.42zm-43.884,19.08 2.544,7.791h8.162l-13.356-38.637h-8.798l-13.727,38.637h8.109l2.597-7.791h14.469zm-2.173-6.625h-10.07l5.035-15.105 5.035,15.105zm-27.56-12.455c0-3.551-.795-5.883-2.703-8.003-2.597-2.862-6.89-4.399-12.455-4.399-9.275,0-14.628,4.346-14.628,11.872 0,5.989 3.021,8.904 10.865,10.388l5.406,1.06c5.3,1.007 7.261,2.491 7.261,5.618 0,3.233-2.968,5.194-7.791,5.194-5.406,0-8.427-2.279-8.692-6.413h-7.738c.477,8.268 6.148,12.773 16.006,12.773 9.964,0 15.847-4.664 15.847-12.508 0-6.095-3.074-9.275-10.229-10.653l-6.042-1.166c-5.671-1.113-7.314-2.226-7.314-5.035 0-2.915 2.597-4.77 6.678-4.77 5.035,0 7.844,2.12 8.109,6.042h7.42zm-43.354,26.871h7.95v-38.637h-7.95v26.288l-15.317-26.288h-8.162v38.637h7.95v-26.712l15.529,26.712zm-38.796-7.791 2.544,7.791h8.162l-13.356-38.637h-8.798l-13.727,38.637h8.109l2.597-7.791h14.469zm-2.173-6.625h-10.07l5.035-15.105 5.035,15.105zm-50.774,1.484 3.975-4.134 12.667,17.066h9.487l-17.066-21.995 15.423-16.642h-9.381l-15.105,16.96v-16.96h-7.95v38.637h7.95v-12.932zm-37.948-2.385h9.116c3.445,0 4.929,1.378 4.929,4.611 0,.318 0,.848-.053,1.537-.053,1.007-.053,1.961-.053,2.544 0,3.604.212,4.77 1.219,6.625h8.533v-1.431c-1.219-.689-1.696-1.484-1.696-3.18-.212-11.395-.424-11.925-5.353-14.045 4.346-1.696 6.519-4.823 6.519-9.54 0-3.074-1.06-5.883-2.915-7.791-1.749-1.802-4.187-2.65-7.473-2.65h-20.723v38.637h7.95v-15.317zm0-6.625v-10.07h9.593c2.279,0 3.233.212 4.187,1.007 .954.795 1.431,2.12 1.431,3.922 0,1.855-.53,3.339-1.431,4.134-.848.742-1.908,1.007-4.187,1.007h-9.593zm-23.903,14.151 2.544,7.791h8.162l-13.356-38.637h-8.798l-13.727,38.637h8.109l2.597-7.791h14.469zm-2.173-6.625h-10.07l5.035-15.105 5.035,15.105z" stroke="#000" stroke-width=".85914"/>
</svg>
