<svg xmlns="http://www.w3.org/2000/svg" xmlns:xlink="http://www.w3.org/1999/xlink" width="500" zoomAndPan="magnify" viewBox="0 0 375 374.999991" height="500" preserveAspectRatio="xMidYMid meet" version="1.0"><defs><clipPath id="20c14b2f0c"><path d="M 37.5 37.5 L 337.5 37.5 L 337.5 337.5 L 37.5 337.5 Z M 37.5 37.5 " clip-rule="nonzero"/></clipPath></defs><g clip-path="url(#20c14b2f0c)"><path fill="#000000" d="M 187.5 37.5 C 185.046875 37.5 182.589844 37.558594 180.140625 37.679688 C 177.6875 37.800781 175.242188 37.980469 172.796875 38.222656 C 170.355469 38.464844 167.917969 38.761719 165.492188 39.125 C 163.0625 39.484375 160.644531 39.902344 158.238281 40.382812 C 155.828125 40.859375 153.433594 41.398438 151.054688 41.996094 C 148.671875 42.589844 146.304688 43.246094 143.957031 43.957031 C 141.609375 44.671875 139.277344 45.441406 136.964844 46.269531 C 134.65625 47.09375 132.367188 47.980469 130.097656 48.917969 C 127.828125 49.859375 125.585938 50.851562 123.367188 51.902344 C 121.148438 52.953125 118.957031 54.054688 116.789062 55.210938 C 114.625 56.367188 112.488281 57.578125 110.382812 58.839844 C 108.277344 60.101562 106.207031 61.414062 104.164062 62.78125 C 102.125 64.144531 100.117188 65.554688 98.144531 67.019531 C 96.171875 68.480469 94.238281 69.992188 92.339844 71.546875 C 90.441406 73.105469 88.585938 74.707031 86.765625 76.355469 C 84.945312 78.007812 83.167969 79.699219 81.433594 81.433594 C 79.699219 83.167969 78.007812 84.945312 76.355469 86.765625 C 74.707031 88.585938 73.105469 90.445312 71.546875 92.339844 C 69.992188 94.238281 68.480469 96.171875 67.019531 98.144531 C 65.554688 100.117188 64.144531 102.125 62.78125 104.164062 C 61.414062 106.207031 60.101562 108.277344 58.839844 110.382812 C 57.578125 112.488281 56.367188 114.625 55.210938 116.789062 C 54.054688 118.957031 52.953125 121.148438 51.902344 123.367188 C 50.851562 125.585938 49.859375 127.828125 48.917969 130.097656 C 47.980469 132.367188 47.09375 134.65625 46.269531 136.964844 C 45.441406 139.277344 44.671875 141.609375 43.957031 143.957031 C 43.246094 146.304688 42.589844 148.671875 41.996094 151.054688 C 41.398438 153.433594 40.859375 155.828125 40.382812 158.238281 C 39.902344 160.644531 39.484375 163.0625 39.125 165.492188 C 38.761719 167.917969 38.464844 170.355469 38.222656 172.796875 C 37.980469 175.242188 37.800781 177.6875 37.679688 180.140625 C 37.558594 182.589844 37.5 185.046875 37.5 187.5 C 37.5 189.953125 37.558594 192.410156 37.679688 194.859375 C 37.800781 197.3125 37.980469 199.757812 38.222656 202.203125 C 38.464844 204.644531 38.761719 207.082031 39.125 209.507812 C 39.484375 211.9375 39.902344 214.355469 40.382812 216.761719 C 40.859375 219.171875 41.398438 221.566406 41.996094 223.945312 C 42.589844 226.328125 43.246094 228.695312 43.957031 231.042969 C 44.671875 233.390625 45.441406 235.722656 46.269531 238.035156 C 47.09375 240.34375 47.980469 242.632812 48.917969 244.902344 C 49.859375 247.171875 50.851562 249.414062 51.902344 251.632812 C 52.953125 253.851562 54.054688 256.042969 55.210938 258.210938 C 56.367188 260.375 57.578125 262.507812 58.839844 264.617188 C 60.101562 266.722656 61.414062 268.792969 62.78125 270.835938 C 64.144531 272.875 65.554688 274.882812 67.019531 276.855469 C 68.480469 278.828125 69.992188 280.761719 71.546875 282.660156 C 73.105469 284.554688 74.707031 286.414062 76.355469 288.234375 C 78.007812 290.050781 79.699219 291.832031 81.433594 293.566406 C 83.167969 295.300781 84.945312 296.992188 86.765625 298.644531 C 88.585938 300.292969 90.441406 301.894531 92.339844 303.453125 C 94.238281 305.007812 96.171875 306.519531 98.144531 307.980469 C 100.117188 309.445312 102.125 310.855469 104.164062 312.21875 C 106.207031 313.585938 108.277344 314.898438 110.382812 316.160156 C 112.488281 317.421875 114.625 318.632812 116.789062 319.789062 C 118.957031 320.945312 121.148438 322.046875 123.367188 323.097656 C 125.585938 324.148438 127.828125 325.140625 130.097656 326.082031 C 132.367188 327.019531 134.65625 327.90625 136.964844 328.730469 C 139.277344 329.558594 141.609375 330.328125 143.957031 331.042969 C 146.304688 331.753906 148.671875 332.40625 151.054688 333.003906 C 153.433594 333.601562 155.828125 334.140625 158.238281 334.617188 C 160.644531 335.097656 163.0625 335.515625 165.492188 335.875 C 167.917969 336.238281 170.355469 336.535156 172.796875 336.777344 C 175.242188 337.019531 177.6875 337.199219 180.140625 337.320312 C 182.589844 337.441406 185.046875 337.5 187.5 337.5 C 189.953125 337.5 192.410156 337.441406 194.859375 337.320312 C 197.3125 337.199219 199.757812 337.019531 202.203125 336.777344 C 204.644531 336.535156 207.082031 336.238281 209.507812 335.875 C 211.9375 335.515625 214.355469 335.097656 216.761719 334.617188 C 219.171875 334.140625 221.566406 333.601562 223.945312 333.003906 C 226.328125 332.40625 228.695312 331.753906 231.042969 331.042969 C 233.390625 330.328125 235.722656 329.558594 238.035156 328.730469 C 240.34375 327.90625 242.632812 327.019531 244.902344 326.082031 C 247.171875 325.140625 249.414062 324.148438 251.632812 323.097656 C 253.851562 322.046875 256.042969 320.945312 258.210938 319.789062 C 260.375 318.632812 262.507812 317.421875 264.617188 316.160156 C 266.722656 314.898438 268.792969 313.585938 270.835938 312.21875 C 272.875 310.855469 274.882812 309.445312 276.855469 307.980469 C 278.828125 306.519531 280.761719 305.007812 282.660156 303.453125 C 284.554688 301.894531 286.414062 300.292969 288.234375 298.644531 C 290.050781 296.992188 291.832031 295.300781 293.566406 293.566406 C 295.300781 291.832031 296.992188 290.050781 298.644531 288.234375 C 300.292969 286.414062 301.894531 284.554688 303.453125 282.660156 C 305.007812 280.761719 306.519531 278.828125 307.980469 276.855469 C 309.445312 274.882812 310.855469 272.875 312.21875 270.835938 C 313.585938 268.792969 314.898438 266.722656 316.160156 264.617188 C 317.421875 262.507812 318.632812 260.375 319.789062 258.210938 C 320.945312 256.042969 322.046875 253.851562 323.097656 251.632812 C 324.148438 249.414062 325.140625 247.171875 326.082031 244.902344 C 327.019531 242.632812 327.90625 240.34375 328.730469 238.035156 C 329.558594 235.722656 330.328125 233.390625 331.042969 231.042969 C 331.753906 228.695312 332.40625 226.328125 333.003906 223.945312 C 333.601562 221.566406 334.140625 219.171875 334.617188 216.761719 C 335.097656 214.355469 335.515625 211.9375 335.875 209.507812 C 336.238281 207.082031 336.535156 204.644531 336.777344 202.203125 C 337.019531 199.757812 337.199219 197.3125 337.320312 194.859375 C 337.441406 192.410156 337.5 189.953125 337.5 187.5 C 337.5 185.046875 337.4375 182.59375 337.316406 180.140625 C 337.195312 177.6875 337.011719 175.242188 336.769531 172.800781 C 336.53125 170.355469 336.226562 167.921875 335.867188 165.492188 C 335.507812 163.066406 335.085938 160.648438 334.605469 158.242188 C 334.125 155.835938 333.585938 153.441406 332.992188 151.058594 C 332.394531 148.679688 331.738281 146.3125 331.023438 143.964844 C 330.3125 141.617188 329.542969 139.285156 328.714844 136.976562 C 327.886719 134.664062 327.003906 132.375 326.0625 130.109375 C 325.121094 127.839844 324.128906 125.597656 323.078125 123.378906 C 322.027344 121.160156 320.925781 118.96875 319.765625 116.804688 C 318.609375 114.640625 317.398438 112.503906 316.136719 110.398438 C 314.875 108.296875 313.5625 106.222656 312.199219 104.179688 C 310.835938 102.140625 309.421875 100.136719 307.957031 98.164062 C 306.496094 96.191406 304.988281 94.257812 303.429688 92.359375 C 301.871094 90.464844 300.269531 88.605469 298.621094 86.785156 C 296.972656 84.96875 295.28125 83.191406 293.542969 81.457031 C 291.808594 79.71875 290.03125 78.027344 288.214844 76.378906 C 286.394531 74.730469 284.535156 73.128906 282.640625 71.570312 C 280.742188 70.011719 278.808594 68.503906 276.835938 67.042969 C 274.863281 65.578125 272.859375 64.164062 270.820312 62.800781 C 268.777344 61.4375 266.703125 60.125 264.601562 58.863281 C 262.496094 57.601562 260.359375 56.390625 258.195312 55.234375 C 256.03125 54.074219 253.839844 52.972656 251.621094 51.921875 C 249.402344 50.871094 247.160156 49.878906 244.890625 48.9375 C 242.625 47.996094 240.335938 47.113281 238.023438 46.285156 C 235.714844 45.457031 233.382812 44.6875 231.035156 43.976562 C 228.6875 43.261719 226.320312 42.605469 223.941406 42.007812 C 221.558594 41.414062 219.164062 40.875 216.757812 40.394531 C 214.351562 39.914062 211.933594 39.492188 209.507812 39.132812 C 207.078125 38.773438 204.644531 38.46875 202.199219 38.230469 C 199.757812 37.988281 197.3125 37.804688 194.859375 37.683594 C 192.40625 37.5625 189.953125 37.5 187.5 37.5 Z M 187.5 316.808594 C 185.382812 316.808594 183.269531 316.757812 181.15625 316.65625 C 179.042969 316.550781 176.929688 316.394531 174.824219 316.1875 C 172.71875 315.980469 170.621094 315.722656 168.527344 315.410156 C 166.433594 315.101562 164.347656 314.738281 162.273438 314.324219 C 160.195312 313.914062 158.132812 313.449219 156.082031 312.933594 C 154.027344 312.421875 151.988281 311.855469 149.964844 311.242188 C 147.9375 310.628906 145.929688 309.964844 143.9375 309.25 C 141.945312 308.539062 139.96875 307.777344 138.015625 306.96875 C 136.058594 306.15625 134.125 305.300781 132.210938 304.394531 C 130.300781 303.492188 128.410156 302.539062 126.542969 301.542969 C 124.675781 300.542969 122.835938 299.5 121.019531 298.414062 C 119.207031 297.324219 117.417969 296.191406 115.660156 295.015625 C 113.898438 293.84375 112.167969 292.625 110.46875 291.363281 C 108.769531 290.101562 107.101562 288.800781 105.464844 287.457031 C 103.832031 286.117188 102.230469 284.734375 100.660156 283.3125 C 99.09375 281.890625 97.558594 280.433594 96.0625 278.9375 C 94.566406 277.441406 93.109375 275.90625 91.6875 274.339844 C 90.265625 272.769531 88.882812 271.167969 87.542969 269.535156 C 86.199219 267.898438 84.898438 266.230469 83.636719 264.53125 C 82.375 262.832031 81.15625 261.101562 79.980469 259.339844 C 78.804688 257.582031 77.675781 255.792969 76.585938 253.980469 C 75.5 252.164062 74.457031 250.324219 73.457031 248.457031 C 72.460938 246.589844 71.507812 244.699219 70.605469 242.789062 C 69.699219 240.875 68.84375 238.941406 68.03125 236.984375 C 67.222656 235.03125 66.460938 233.054688 65.75 231.0625 C 65.035156 229.070312 64.371094 227.0625 63.757812 225.035156 C 63.144531 223.011719 62.578125 220.972656 62.066406 218.917969 C 61.550781 216.867188 61.085938 214.804688 60.675781 212.726562 C 60.261719 210.652344 59.898438 208.566406 59.589844 206.472656 C 59.277344 204.378906 59.019531 202.28125 58.8125 200.175781 C 58.605469 198.070312 58.449219 195.957031 58.34375 193.84375 C 58.242188 191.730469 58.191406 189.617188 58.191406 187.5 C 58.191406 185.382812 58.242188 183.269531 58.34375 181.15625 C 58.449219 179.042969 58.605469 176.929688 58.8125 174.824219 C 59.019531 172.71875 59.277344 170.621094 59.589844 168.527344 C 59.898438 166.433594 60.261719 164.347656 60.675781 162.273438 C 61.085938 160.195312 61.550781 158.132812 62.066406 156.082031 C 62.578125 154.027344 63.144531 151.988281 63.757812 149.964844 C 64.371094 147.9375 65.035156 145.929688 65.75 143.9375 C 66.460938 141.945312 67.222656 139.96875 68.03125 138.015625 C 68.84375 136.058594 69.699219 134.125 70.605469 132.210938 C 71.507812 130.300781 72.460938 128.410156 73.457031 126.542969 C 74.457031 124.675781 75.5 122.835938 76.585938 121.019531 C 77.675781 119.207031 78.804688 117.417969 79.980469 115.660156 C 81.15625 113.898438 82.375 112.167969 83.636719 110.46875 C 84.898438 108.769531 86.199219 107.101562 87.542969 105.464844 C 88.882812 103.832031 90.265625 102.226562 91.6875 100.660156 C 93.109375 99.09375 94.566406 97.558594 96.0625 96.0625 C 97.558594 94.566406 99.09375 93.109375 100.660156 91.6875 C 102.230469 90.265625 103.832031 88.882812 105.464844 87.542969 C 107.101562 86.199219 108.769531 84.898438 110.46875 83.636719 C 112.167969 82.375 113.898438 81.15625 115.660156 79.980469 C 117.417969 78.804688 119.207031 77.675781 121.019531 76.585938 C 122.835938 75.5 124.675781 74.457031 126.542969 73.457031 C 128.410156 72.460938 130.300781 71.507812 132.210938 70.605469 C 134.125 69.699219 136.058594 68.84375 138.015625 68.03125 C 139.96875 67.222656 141.945312 66.460938 143.9375 65.75 C 145.929688 65.035156 147.9375 64.371094 149.964844 63.757812 C 151.988281 63.144531 154.027344 62.578125 156.082031 62.066406 C 158.132812 61.550781 160.195312 61.085938 162.273438 60.675781 C 164.347656 60.261719 166.433594 59.898438 168.527344 59.589844 C 170.621094 59.277344 172.71875 59.019531 174.824219 58.8125 C 176.929688 58.605469 179.042969 58.449219 181.15625 58.34375 C 183.269531 58.242188 185.382812 58.191406 187.5 58.191406 C 189.617188 58.191406 191.730469 58.242188 193.84375 58.34375 C 195.957031 58.449219 198.070312 58.605469 200.175781 58.8125 C 202.28125 59.019531 204.378906 59.277344 206.472656 59.589844 C 208.566406 59.898438 210.652344 60.261719 212.726562 60.675781 C 214.804688 61.085938 216.867188 61.550781 218.917969 62.066406 C 220.972656 62.578125 223.011719 63.144531 225.035156 63.757812 C 227.0625 64.371094 229.070312 65.035156 231.0625 65.75 C 233.054688 66.460938 235.03125 67.222656 236.984375 68.03125 C 238.941406 68.84375 240.875 69.699219 242.789062 70.605469 C 244.699219 71.507812 246.589844 72.460938 248.457031 73.457031 C 250.324219 74.457031 252.164062 75.5 253.980469 76.585938 C 255.792969 77.675781 257.582031 78.804688 259.339844 79.980469 C 261.101562 81.15625 262.832031 82.375 264.53125 83.636719 C 266.230469 84.898438 267.898438 86.199219 269.535156 87.542969 C 271.167969 88.882812 272.769531 90.265625 274.339844 91.6875 C 275.90625 93.109375 277.441406 94.566406 278.9375 96.0625 C 280.433594 97.558594 281.890625 99.09375 283.3125 100.660156 C 284.734375 102.226562 286.117188 103.832031 287.457031 105.464844 C 288.800781 107.101562 290.101562 108.769531 291.363281 110.46875 C 292.625 112.167969 293.84375 113.898438 295.015625 115.660156 C 296.191406 117.417969 297.324219 119.207031 298.414062 121.019531 C 299.5 122.835938 300.542969 124.675781 301.542969 126.542969 C 302.539062 128.410156 303.492188 130.300781 304.394531 132.210938 C 305.300781 134.125 306.15625 136.058594 306.96875 138.015625 C 307.777344 139.96875 308.539062 141.945312 309.25 143.9375 C 309.964844 145.929688 310.628906 147.9375 311.242188 149.964844 C 311.855469 151.988281 312.421875 154.027344 312.933594 156.082031 C 313.449219 158.132812 313.914062 160.195312 314.324219 162.273438 C 314.738281 164.347656 315.101562 166.433594 315.410156 168.527344 C 315.722656 170.621094 315.980469 172.71875 316.1875 174.824219 C 316.394531 176.929688 316.550781 179.042969 316.65625 181.15625 C 316.757812 183.269531 316.808594 185.382812 316.808594 187.5 C 316.808594 189.617188 316.757812 191.730469 316.652344 193.84375 C 316.546875 195.957031 316.390625 198.066406 316.183594 200.171875 C 315.972656 202.277344 315.714844 204.378906 315.402344 206.46875 C 315.089844 208.5625 314.730469 210.648438 314.316406 212.722656 C 313.902344 214.796875 313.4375 216.863281 312.921875 218.914062 C 312.40625 220.964844 311.84375 223.003906 311.226562 225.03125 C 310.613281 227.054688 309.949219 229.0625 309.234375 231.054688 C 308.523438 233.046875 307.761719 235.019531 306.949219 236.976562 C 306.140625 238.929688 305.28125 240.863281 304.378906 242.777344 C 303.472656 244.6875 302.519531 246.578125 301.523438 248.445312 C 300.527344 250.308594 299.484375 252.152344 298.394531 253.964844 C 297.304688 255.78125 296.175781 257.566406 295 259.328125 C 293.824219 261.085938 292.605469 262.816406 291.34375 264.515625 C 290.082031 266.214844 288.78125 267.882812 287.4375 269.515625 C 286.097656 271.152344 284.714844 272.753906 283.292969 274.320312 C 281.871094 275.890625 280.414062 277.421875 278.917969 278.917969 C 277.421875 280.414062 275.890625 281.871094 274.320312 283.292969 C 272.753906 284.714844 271.152344 286.097656 269.515625 287.4375 C 267.882812 288.78125 266.214844 290.082031 264.515625 291.34375 C 262.816406 292.605469 261.085938 293.824219 259.328125 295 C 257.566406 296.175781 255.78125 297.304688 253.964844 298.394531 C 252.152344 299.484375 250.308594 300.527344 248.445312 301.523438 C 246.578125 302.519531 244.6875 303.472656 242.777344 304.378906 C 240.863281 305.28125 238.929688 306.140625 236.976562 306.949219 C 235.019531 307.761719 233.046875 308.523438 231.054688 309.234375 C 229.0625 309.949219 227.054688 310.613281 225.03125 311.226562 C 223.003906 311.84375 220.964844 312.40625 218.914062 312.921875 C 216.863281 313.4375 214.796875 313.902344 212.722656 314.316406 C 210.648438 314.730469 208.5625 315.089844 206.46875 315.402344 C 204.378906 315.714844 202.277344 315.972656 200.171875 316.183594 C 198.066406 316.390625 195.957031 316.546875 193.84375 316.652344 C 191.730469 316.757812 189.617188 316.808594 187.5 316.808594 Z M 187.5 316.808594 " fill-opacity="1" fill-rule="evenodd"/></g><path fill="#000000" d="M 187.5 68.535156 C 185.554688 68.535156 183.605469 68.582031 181.664062 68.679688 C 179.71875 68.773438 177.777344 68.917969 175.839844 69.105469 C 173.902344 69.296875 171.96875 69.535156 170.042969 69.820312 C 168.117188 70.109375 166.199219 70.441406 164.289062 70.820312 C 162.382812 71.199219 160.480469 71.625 158.59375 72.101562 C 156.707031 72.574219 154.828125 73.09375 152.964844 73.65625 C 151.101562 74.222656 149.253906 74.832031 147.421875 75.488281 C 145.589844 76.144531 143.773438 76.84375 141.972656 77.589844 C 140.175781 78.335938 138.394531 79.125 136.636719 79.957031 C 134.875 80.789062 133.136719 81.664062 131.421875 82.582031 C 129.703125 83.5 128.007812 84.457031 126.339844 85.460938 C 124.667969 86.460938 123.023438 87.503906 121.40625 88.582031 C 119.789062 89.664062 118.195312 90.785156 116.632812 91.945312 C 115.070312 93.105469 113.535156 94.304688 112.027344 95.539062 C 110.523438 96.773438 109.050781 98.042969 107.609375 99.351562 C 106.164062 100.660156 104.753906 102.003906 103.378906 103.378906 C 102.003906 104.753906 100.660156 106.164062 99.351562 107.609375 C 98.042969 109.050781 96.773438 110.523438 95.539062 112.027344 C 94.304688 113.535156 93.105469 115.070312 91.945312 116.632812 C 90.785156 118.195312 89.664062 119.789062 88.582031 121.40625 C 87.503906 123.023438 86.460938 124.667969 85.460938 126.339844 C 84.457031 128.007812 83.5 129.703125 82.582031 131.421875 C 81.664062 133.136719 80.789062 134.875 79.957031 136.636719 C 79.125 138.394531 78.335938 140.175781 77.589844 141.972656 C 76.84375 143.773438 76.144531 145.589844 75.488281 147.421875 C 74.832031 149.253906 74.222656 151.101562 73.65625 152.964844 C 73.09375 154.828125 72.574219 156.707031 72.101562 158.59375 C 71.625 160.480469 71.199219 162.382812 70.820312 164.289062 C 70.441406 166.199219 70.109375 168.117188 69.820312 170.042969 C 69.535156 171.96875 69.296875 173.902344 69.105469 175.839844 C 68.917969 177.777344 68.773438 179.71875 68.679688 181.664062 C 68.582031 183.605469 68.535156 185.554688 68.535156 187.5 C 68.535156 189.445312 68.582031 191.394531 68.679688 193.335938 C 68.773438 195.28125 68.917969 197.222656 69.105469 199.160156 C 69.296875 201.097656 69.535156 203.03125 69.820312 204.957031 C 70.109375 206.882812 70.441406 208.800781 70.820312 210.710938 C 71.199219 212.617188 71.625 214.519531 72.101562 216.40625 C 72.574219 218.292969 73.09375 220.171875 73.65625 222.035156 C 74.222656 223.898438 74.832031 225.746094 75.488281 227.578125 C 76.144531 229.410156 76.84375 231.226562 77.589844 233.027344 C 78.335938 234.824219 79.125 236.605469 79.957031 238.363281 C 80.789062 240.125 81.664062 241.863281 82.582031 243.578125 C 83.5 245.296875 84.457031 246.992188 85.460938 248.660156 C 86.460938 250.332031 87.503906 251.976562 88.582031 253.59375 C 89.664062 255.210938 90.785156 256.804688 91.945312 258.367188 C 93.105469 259.929688 94.304688 261.464844 95.539062 262.972656 C 96.773438 264.476562 98.042969 265.949219 99.351562 267.390625 C 100.660156 268.835938 102.003906 270.246094 103.378906 271.621094 C 104.753906 272.996094 106.164062 274.339844 107.609375 275.648438 C 109.050781 276.957031 110.523438 278.226562 112.027344 279.460938 C 113.535156 280.695312 115.070312 281.894531 116.632812 283.054688 C 118.195312 284.214844 119.789062 285.335938 121.40625 286.417969 C 123.023438 287.496094 124.667969 288.539062 126.339844 289.539062 C 128.007812 290.539062 129.703125 291.5 131.421875 292.417969 C 133.136719 293.335938 134.875 294.210938 136.636719 295.042969 C 138.394531 295.875 140.175781 296.664062 141.972656 297.410156 C 143.773438 298.15625 145.589844 298.855469 147.421875 299.511719 C 149.253906 300.167969 151.101562 300.777344 152.964844 301.34375 C 154.828125 301.90625 156.707031 302.425781 158.59375 302.898438 C 160.480469 303.375 162.382812 303.800781 164.289062 304.179688 C 166.199219 304.558594 168.117188 304.890625 170.042969 305.179688 C 171.96875 305.464844 173.902344 305.703125 175.839844 305.894531 C 177.777344 306.082031 179.71875 306.226562 181.664062 306.320312 C 183.605469 306.417969 185.554688 306.464844 187.5 306.464844 C 189.445312 306.464844 191.394531 306.417969 193.335938 306.320312 C 195.28125 306.226562 197.222656 306.082031 199.160156 305.894531 C 201.097656 305.703125 203.03125 305.464844 204.957031 305.179688 C 206.882812 304.890625 208.800781 304.558594 210.710938 304.179688 C 212.617188 303.800781 214.519531 303.375 216.40625 302.898438 C 218.292969 302.425781 220.171875 301.90625 222.035156 301.34375 C 223.898438 300.777344 225.746094 300.167969 227.578125 299.511719 C 229.410156 298.855469 231.226562 298.15625 233.027344 297.410156 C 234.824219 296.664062 236.605469 295.875 238.363281 295.042969 C 240.125 294.210938 241.863281 293.335938 243.578125 292.417969 C 245.296875 291.5 246.992188 290.542969 248.660156 289.539062 C 250.332031 288.539062 251.976562 287.496094 253.59375 286.417969 C 255.210938 285.335938 256.804688 284.214844 258.367188 283.054688 C 259.929688 281.894531 261.464844 280.695312 262.972656 279.460938 C 264.476562 278.226562 265.949219 276.957031 267.390625 275.648438 C 268.835938 274.339844 270.246094 272.996094 271.621094 271.621094 C 272.996094 270.246094 274.339844 268.835938 275.648438 267.390625 C 276.953125 265.949219 278.226562 264.476562 279.460938 262.972656 C 280.695312 261.464844 281.894531 259.929688 283.054688 258.367188 C 284.214844 256.804688 285.335938 255.210938 286.417969 253.59375 C 287.496094 251.976562 288.539062 250.332031 289.539062 248.660156 C 290.542969 246.992188 291.5 245.296875 292.417969 243.578125 C 293.335938 241.863281 294.210938 240.125 295.042969 238.363281 C 295.875 236.605469 296.664062 234.824219 297.410156 233.027344 C 298.15625 231.226562 298.855469 229.410156 299.511719 227.578125 C 300.167969 225.746094 300.777344 223.898438 301.34375 222.035156 C 301.90625 220.171875 302.425781 218.292969 302.898438 216.40625 C 303.375 214.519531 303.800781 212.617188 304.179688 210.710938 C 304.558594 208.800781 304.890625 206.882812 305.179688 204.957031 C 305.464844 203.03125 305.703125 201.097656 305.894531 199.160156 C 306.082031 197.222656 306.226562 195.28125 306.320312 193.335938 C 306.417969 191.394531 306.464844 189.445312 306.464844 187.5 C 306.464844 185.554688 306.417969 183.609375 306.320312 181.664062 C 306.222656 179.71875 306.078125 177.777344 305.886719 175.839844 C 305.695312 173.902344 305.457031 171.972656 305.171875 170.046875 C 304.886719 168.121094 304.550781 166.203125 304.171875 164.292969 C 303.789062 162.386719 303.363281 160.488281 302.890625 158.597656 C 302.417969 156.710938 301.898438 154.835938 301.332031 152.972656 C 300.765625 151.109375 300.15625 149.261719 299.5 147.429688 C 298.84375 145.597656 298.140625 143.78125 297.394531 141.980469 C 296.652344 140.183594 295.863281 138.40625 295.027344 136.644531 C 294.195312 134.886719 293.320312 133.148438 292.402344 131.429688 C 291.484375 129.714844 290.527344 128.019531 289.523438 126.351562 C 288.523438 124.679688 287.480469 123.035156 286.398438 121.417969 C 285.320312 119.800781 284.199219 118.207031 283.039062 116.644531 C 281.878906 115.082031 280.679688 113.546875 279.445312 112.042969 C 278.210938 110.539062 276.9375 109.066406 275.632812 107.621094 C 274.324219 106.179688 272.984375 104.769531 271.605469 103.394531 C 270.230469 102.015625 268.820312 100.675781 267.378906 99.367188 C 265.933594 98.058594 264.460938 96.789062 262.957031 95.554688 C 261.453125 94.320312 259.917969 93.121094 258.355469 91.960938 C 256.789062 90.800781 255.199219 89.679688 253.582031 88.601562 C 251.964844 87.519531 250.320312 86.476562 248.648438 85.476562 C 246.980469 84.472656 245.285156 83.515625 243.570312 82.597656 C 241.851562 81.679688 240.113281 80.804688 238.355469 79.972656 C 236.59375 79.136719 234.816406 78.347656 233.019531 77.605469 C 231.21875 76.859375 229.402344 76.15625 227.570312 75.5 C 225.738281 74.84375 223.890625 74.234375 222.027344 73.667969 C 220.164062 73.101562 218.289062 72.582031 216.402344 72.109375 C 214.511719 71.636719 212.613281 71.210938 210.707031 70.828125 C 208.796875 70.449219 206.878906 70.113281 204.953125 69.828125 C 203.027344 69.542969 201.097656 69.304688 199.160156 69.113281 C 197.222656 68.921875 195.28125 68.777344 193.335938 68.679688 C 191.390625 68.582031 189.445312 68.535156 187.5 68.535156 Z M 169.417969 255.777344 L 140.070312 255.777344 L 140.070312 152.328125 C 138.292969 153.871094 136.382812 155.222656 134.339844 156.382812 C 132.070312 157.6875 129.722656 158.835938 127.304688 159.828125 C 124.777344 160.863281 122.199219 161.734375 119.566406 162.445312 C 116.960938 163.144531 114.320312 163.65625 111.640625 163.976562 L 111.640625 139.148438 C 119.121094 136.980469 126.328125 134.125 133.261719 130.582031 C 139.714844 127.332031 145.835938 123.546875 151.625 119.222656 L 169.417969 119.222656 Z M 245.503906 255.777344 L 216.15625 255.777344 L 216.15625 152.328125 C 214.378906 153.871094 212.46875 155.222656 210.425781 156.382812 C 208.15625 157.6875 205.8125 158.835938 203.390625 159.828125 C 200.867188 160.863281 198.285156 161.734375 195.652344 162.445312 C 193.046875 163.144531 190.40625 163.65625 187.726562 163.976562 L 187.726562 139.148438 C 195.207031 136.980469 202.414062 134.125 209.347656 130.582031 C 215.800781 127.332031 221.921875 123.546875 227.710938 119.222656 L 245.503906 119.222656 Z M 245.503906 255.777344 " fill-opacity="1" fill-rule="evenodd"/></svg>