<svg xmlns="http://www.w3.org/2000/svg" xmlns:xlink="http://www.w3.org/1999/xlink" width="500" zoomAndPan="magnify" viewBox="0 0 375 374.999991" height="500" preserveAspectRatio="xMidYMid meet" version="1.0"><defs><clipPath id="0b3b787d8f"><path d="M 51.9375 210 L 290 210 L 290 337.5 L 51.9375 337.5 Z M 51.9375 210 " clip-rule="nonzero"/></clipPath></defs><path fill="#ffffff" d="M 247.238281 77.214844 C 258.609375 85.0625 267.917969 80.472656 276.023438 74 C 298.476562 56.066406 309.171875 37.796875 313.539062 42.089844 C 323.394531 51.78125 266.441406 81.632812 275.753906 111.6875 C 280.242188 126.191406 280.199219 203.949219 266.785156 203.890625 C 256.441406 203.847656 271.640625 131.019531 260.691406 129.40625 C 247.820312 127.503906 217.464844 197.144531 202.636719 194.203125 C 185.382812 190.773438 249.640625 121.960938 250.96875 108.394531 C 253.023438 87.4375 206.878906 62.523438 210.355469 56.511719 C 214.960938 48.550781 237.949219 70.800781 247.238281 77.214844 " fill-opacity="1" fill-rule="nonzero"/><path fill="#ffffff" d="M 270.683594 65.066406 C 270.648438 72.316406 266.152344 78.175781 260.632812 78.152344 C 255.117188 78.132812 250.664062 72.234375 250.699219 64.984375 C 250.730469 57.734375 255.230469 51.878906 260.746094 51.898438 C 266.265625 51.921875 270.714844 57.816406 270.683594 65.066406 " fill-opacity="1" fill-rule="nonzero"/><path fill="#e4e4e4" d="M 76.1875 300.855469 L 73.371094 300.675781 C 73.414062 300 78.421875 233.574219 147.832031 228.472656 C 146.707031 218.589844 143.199219 164.136719 199.28125 146.851562 L 200.113281 149.542969 C 141.035156 167.746094 150.390625 227.027344 150.816406 229.539062 L 151.074219 231.085938 L 149.511719 231.179688 C 81.179688 235.273438 76.355469 298.179688 76.1875 300.855469 " fill-opacity="1" fill-rule="nonzero"/><g clip-path="url(#0b3b787d8f)"><path fill="#e4e4e4" d="M 139.011719 337.304688 L 51.925781 337.304688 L 51.925781 320.425781 L 122.109375 320.425781 L 122.109375 267.6875 L 200.753906 267.6875 L 200.753906 210.605469 L 289.320312 210.605469 L 289.320312 227.484375 L 217.65625 227.484375 L 217.65625 284.566406 L 139.011719 284.566406 L 139.011719 337.304688 " fill-opacity="1" fill-rule="nonzero"/></g></svg>