<svg xmlns="http://www.w3.org/2000/svg" xmlns:xlink="http://www.w3.org/1999/xlink" width="500" zoomAndPan="magnify" viewBox="0 0 375 374.999991" height="500" preserveAspectRatio="xMidYMid meet" version="1.0"><defs><clipPath id="a466f165ac"><path d="M 38 38.4375 L 338 38.4375 L 338 337.6875 L 38 337.6875 Z M 38 38.4375 " clip-rule="nonzero"/></clipPath></defs><g clip-path="url(#a466f165ac)"><path fill="#ffffff" d="M 142.171875 108.703125 C 141.3125 111.347656 142.15625 114.183594 144.324219 115.929688 L 163.609375 131.449219 L 157.117188 155.351562 C 156.386719 158.035156 157.371094 160.828125 159.617188 162.464844 C 161.867188 164.097656 164.820312 164.171875 167.148438 162.648438 L 187.847656 149.082031 L 208.546875 162.648438 C 209.664062 163.378906 210.925781 163.742188 212.183594 163.742188 C 213.546875 163.742188 214.90625 163.316406 216.074219 162.464844 C 218.324219 160.828125 219.304688 158.035156 218.578125 155.351562 L 212.085938 131.449219 L 231.367188 115.929688 C 233.535156 114.1875 234.382812 111.351562 233.523438 108.703125 C 232.664062 106.054688 230.3125 104.257812 227.539062 104.125 L 202.828125 102.917969 L 194.046875 79.757812 C 193.058594 77.160156 190.625 75.476562 187.847656 75.476562 C 185.066406 75.476562 182.632812 77.15625 181.648438 79.757812 L 172.867188 102.917969 L 148.15625 104.125 C 145.378906 104.257812 143.03125 106.054688 142.171875 108.703125 Z M 175.09375 112.171875 C 177.726562 112.042969 180.03125 110.363281 180.96875 107.898438 L 187.847656 89.757812 L 194.726562 107.898438 C 195.660156 110.367188 197.96875 112.042969 200.597656 112.171875 L 219.953125 113.117188 L 204.851562 125.273438 C 202.792969 126.925781 201.914062 129.640625 202.605469 132.1875 L 207.691406 150.910156 L 191.476562 140.28125 C 190.371094 139.5625 189.109375 139.199219 187.84375 139.199219 C 186.582031 139.199219 185.316406 139.5625 184.214844 140.285156 L 168 150.910156 L 173.085938 132.1875 C 173.777344 129.640625 172.894531 126.925781 170.839844 125.273438 L 155.734375 113.117188 Z M 183.175781 60.273438 L 183.175781 43.113281 C 183.175781 40.53125 185.265625 38.4375 187.847656 38.4375 C 190.425781 38.4375 192.515625 40.53125 192.515625 43.113281 L 192.515625 60.273438 C 192.515625 62.855469 190.425781 64.949219 187.847656 64.949219 C 185.265625 64.949219 183.175781 62.855469 183.175781 60.273438 Z M 211.613281 87.976562 C 209.890625 86.054688 210.042969 83.097656 211.960938 81.371094 L 231.058594 64.152344 C 232.976562 62.425781 235.925781 62.582031 237.652344 64.5 C 239.378906 66.417969 239.222656 69.375 237.308594 71.105469 L 218.210938 88.320312 C 217.316406 89.125 216.199219 89.523438 215.085938 89.523438 C 213.808594 89.523438 212.539062 89 211.613281 87.976562 Z M 138.039062 64.5 C 139.761719 62.582031 142.714844 62.425781 144.632812 64.152344 L 163.730469 81.371094 C 165.648438 83.097656 165.800781 86.054688 164.078125 87.976562 C 163.15625 89 161.882812 89.523438 160.605469 89.523438 C 159.492188 89.523438 158.375 89.125 157.480469 88.320312 L 138.382812 71.105469 C 136.464844 69.375 136.3125 66.417969 138.039062 64.5 Z M 247.757812 115.929688 L 267.042969 131.449219 L 260.550781 155.351562 C 259.824219 158.035156 260.804688 160.828125 263.054688 162.464844 C 265.300781 164.097656 268.253906 164.171875 270.582031 162.648438 L 291.28125 149.082031 L 311.980469 162.648438 C 313.097656 163.378906 314.359375 163.742188 315.617188 163.742188 C 316.980469 163.742188 318.339844 163.316406 319.507812 162.464844 C 321.757812 160.832031 322.738281 158.039062 322.011719 155.351562 L 315.519531 131.449219 L 334.800781 115.929688 C 336.96875 114.1875 337.816406 111.351562 336.957031 108.703125 C 336.097656 106.054688 333.746094 104.257812 330.972656 104.125 L 306.261719 102.917969 L 297.480469 79.757812 C 296.492188 77.160156 294.058594 75.476562 291.28125 75.476562 C 288.5 75.476562 286.066406 77.15625 285.082031 79.757812 L 276.300781 102.917969 L 251.589844 104.125 C 248.8125 104.257812 246.464844 106.054688 245.605469 108.703125 C 244.746094 111.351562 245.589844 114.1875 247.757812 115.929688 Z M 278.527344 112.171875 C 281.160156 112.042969 283.46875 110.363281 284.402344 107.898438 L 291.28125 89.757812 L 298.15625 107.894531 C 299.09375 110.363281 301.402344 112.042969 304.035156 112.171875 L 323.390625 113.117188 L 308.285156 125.269531 C 306.230469 126.925781 305.347656 129.640625 306.039062 132.1875 L 311.125 150.910156 L 294.910156 140.28125 C 293.808594 139.558594 292.542969 139.199219 291.277344 139.199219 C 290.015625 139.199219 288.75 139.5625 287.648438 140.28125 L 271.433594 150.910156 L 276.519531 132.1875 C 277.210938 129.640625 276.332031 126.925781 274.273438 125.269531 L 259.167969 113.117188 Z M 40.886719 115.929688 L 60.171875 131.449219 L 53.683594 155.351562 C 52.953125 158.035156 53.933594 160.828125 56.183594 162.464844 C 58.433594 164.097656 61.386719 164.171875 63.710938 162.648438 L 84.410156 149.082031 L 105.113281 162.648438 C 106.230469 163.378906 107.488281 163.742188 108.746094 163.742188 C 110.109375 163.742188 111.472656 163.316406 112.640625 162.464844 C 114.886719 160.832031 115.871094 158.039062 115.140625 155.351562 L 108.652344 131.449219 L 127.933594 115.929688 C 130.097656 114.1875 130.945312 111.351562 130.085938 108.699219 C 129.226562 106.054688 126.875 104.257812 124.101562 104.125 L 99.390625 102.917969 L 90.609375 79.757812 C 89.625 77.160156 87.191406 75.476562 84.410156 75.476562 C 81.632812 75.476562 79.199219 77.15625 78.210938 79.757812 L 69.429688 102.917969 L 44.722656 104.125 C 41.945312 104.257812 39.59375 106.054688 38.738281 108.699219 C 37.875 111.347656 38.722656 114.1875 40.886719 115.929688 Z M 71.65625 112.171875 C 74.289062 112.042969 76.597656 110.363281 77.53125 107.898438 L 84.410156 89.757812 L 91.289062 107.894531 C 92.226562 110.363281 94.53125 112.042969 97.164062 112.171875 L 116.519531 113.117188 L 101.417969 125.269531 C 99.359375 126.925781 98.480469 129.640625 99.171875 132.1875 L 104.253906 150.910156 L 88.039062 140.28125 C 86.9375 139.558594 85.675781 139.199219 84.410156 139.199219 C 83.144531 139.199219 81.882812 139.5625 80.777344 140.28125 L 64.566406 150.910156 L 69.648438 132.1875 C 70.339844 129.640625 69.460938 126.925781 67.40625 125.269531 L 52.300781 113.117188 Z M 336.550781 286.800781 C 333.261719 276.175781 326.53125 266.636719 317.597656 259.9375 C 313.320312 256.730469 308.660156 254.230469 303.746094 252.460938 C 310.5625 247.109375 314.949219 238.796875 314.949219 229.472656 C 314.949219 213.363281 301.859375 200.253906 285.769531 200.253906 C 269.675781 200.253906 256.585938 213.363281 256.585938 229.472656 C 256.585938 238.785156 260.964844 247.089844 267.761719 252.441406 C 258.652344 255.699219 250.578125 261.421875 244.394531 269.132812 C 241.503906 265.085938 238.171875 261.324219 234.425781 257.933594 C 226.875 251.097656 218.015625 246.074219 208.472656 243.109375 C 218.589844 236.390625 225.28125 224.890625 225.28125 211.851562 C 225.28125 191.183594 208.488281 174.371094 187.847656 174.371094 C 167.207031 174.371094 150.410156 191.183594 150.410156 211.851562 C 150.410156 224.890625 157.101562 236.390625 167.21875 243.109375 C 157.675781 246.074219 148.816406 251.097656 141.265625 257.933594 C 137.519531 261.324219 134.1875 265.085938 131.296875 269.132812 C 125.113281 261.421875 117.042969 255.699219 107.929688 252.441406 C 114.726562 247.085938 119.105469 238.785156 119.105469 229.472656 C 119.105469 213.359375 106.015625 200.253906 89.925781 200.253906 C 73.832031 200.253906 60.742188 213.359375 60.742188 229.472656 C 60.742188 238.792969 65.132812 247.105469 71.945312 252.460938 C 67.03125 254.230469 62.371094 256.726562 58.09375 259.933594 C 49.15625 266.632812 42.429688 276.171875 39.140625 286.796875 C 37.625 291.703125 38.464844 296.683594 41.511719 300.820312 C 44.554688 304.957031 49.058594 307.234375 54.1875 307.234375 L 118.746094 307.234375 L 118.746094 315.671875 C 118.746094 327.8125 128.609375 337.6875 140.734375 337.6875 L 234.957031 337.6875 C 247.082031 337.6875 256.945312 327.8125 256.945312 315.671875 L 256.945312 307.238281 L 321.503906 307.238281 C 326.632812 307.238281 331.136719 304.957031 334.179688 300.824219 C 337.226562 296.6875 338.066406 291.707031 336.550781 286.800781 Z M 285.769531 209.605469 C 296.710938 209.605469 305.609375 218.519531 305.609375 229.472656 C 305.609375 240.429688 296.710938 249.339844 285.769531 249.339844 C 274.828125 249.339844 265.925781 240.429688 265.925781 229.472656 C 265.925781 218.519531 274.828125 209.605469 285.769531 209.605469 Z M 159.75 211.851562 C 159.75 196.339844 172.355469 183.722656 187.847656 183.722656 C 203.335938 183.722656 215.941406 196.339844 215.941406 211.851562 C 215.941406 227.355469 203.347656 239.972656 187.863281 239.980469 C 187.855469 239.980469 187.851562 239.980469 187.847656 239.980469 C 187.839844 239.980469 187.835938 239.980469 187.832031 239.980469 C 172.347656 239.972656 159.75 227.355469 159.75 211.851562 Z M 89.925781 209.601562 C 100.867188 209.601562 109.765625 218.515625 109.765625 229.46875 C 109.765625 240.425781 100.867188 249.339844 89.925781 249.339844 C 78.984375 249.339844 70.082031 240.425781 70.082031 229.46875 C 70.082031 218.515625 78.984375 209.601562 89.925781 209.601562 Z M 119.355469 297.882812 L 54.191406 297.882812 C 52.039062 297.882812 50.304688 297.003906 49.027344 295.273438 C 47.753906 293.539062 47.429688 291.617188 48.066406 289.5625 C 53.777344 271.097656 70.597656 258.691406 89.925781 258.691406 C 104.542969 258.691406 117.859375 265.761719 126.050781 277.734375 C 122.8125 284.03125 120.546875 290.820312 119.355469 297.882812 Z M 247.605469 315.671875 C 247.605469 322.65625 241.929688 328.335938 234.957031 328.335938 L 140.734375 328.335938 C 133.761719 328.335938 128.085938 322.65625 128.085938 315.671875 L 128.085938 302.8125 C 131.46875 272.308594 157.109375 249.339844 187.832031 249.332031 C 187.835938 249.332031 187.839844 249.332031 187.847656 249.332031 C 187.851562 249.332031 187.855469 249.332031 187.863281 249.332031 C 218.582031 249.339844 244.222656 272.308594 247.605469 302.8125 Z M 326.664062 295.273438 C 325.386719 297.007812 323.652344 297.882812 321.503906 297.882812 L 256.339844 297.882812 C 255.148438 290.824219 252.878906 284.035156 249.640625 277.734375 C 257.832031 265.765625 271.148438 258.691406 285.765625 258.691406 C 305.09375 258.691406 321.917969 271.101562 327.628906 289.566406 C 328.261719 291.621094 327.9375 293.542969 326.664062 295.273438 Z M 326.664062 295.273438 " fill-opacity="1" fill-rule="nonzero"/></g></svg>