<svg xmlns="http://www.w3.org/2000/svg" xmlns:xlink="http://www.w3.org/1999/xlink" width="500" zoomAndPan="magnify" viewBox="0 0 375 374.999991" height="500" preserveAspectRatio="xMidYMid meet" version="1.0"><defs><clipPath id="1d70218576"><path d="M 77.207031 37.5 L 297.851562 37.5 L 297.851562 337.496094 L 77.207031 337.496094 Z M 77.207031 37.5 " clip-rule="nonzero"/></clipPath></defs><path fill="#ffffff" d="M 229.089844 129.375 C 228.019531 126.539062 225.242188 124.625 222.195312 124.625 L 152.878906 124.625 C 149.835938 124.625 147.058594 126.539062 145.988281 129.375 C 141.640625 140.746094 137.714844 151.296875 136.910156 153.117188 L 238.167969 153.117188 C 237.363281 151.296875 231.695312 136.210938 229.089844 129.375 " fill-opacity="1" fill-rule="nonzero"/><path fill="#ffffff" d="M 134.59375 167.671875 C 129.882812 167.671875 126.074219 171.5 126.074219 176.191406 C 126.074219 180.902344 129.882812 184.730469 134.59375 184.730469 C 139.304688 184.730469 143.132812 180.902344 143.132812 176.191406 C 143.132812 171.5 139.304688 167.671875 134.59375 167.671875 " fill-opacity="1" fill-rule="nonzero"/><path fill="#ffffff" d="M 240.484375 167.671875 C 235.773438 167.671875 231.941406 171.5 231.941406 176.191406 C 231.941406 180.902344 235.773438 184.730469 240.484375 184.730469 C 245.195312 184.730469 249.003906 180.902344 249.003906 176.191406 C 249.003906 171.5 245.195312 167.671875 240.484375 167.671875 " fill-opacity="1" fill-rule="nonzero"/><path fill="#ffffff" d="M 263.039062 173.050781 C 263.039062 188.578125 263.039062 200.089844 263.039062 213.222656 C 263.039062 216.671875 260.246094 219.464844 256.796875 219.464844 L 243.488281 219.464844 C 240.042969 219.464844 237.246094 216.671875 237.246094 213.222656 L 237.246094 202.195312 L 137.828125 202.195312 L 137.828125 213.222656 C 137.828125 216.671875 135.035156 219.464844 131.585938 219.464844 L 118.277344 219.464844 C 114.832031 219.464844 112.035156 216.671875 112.035156 213.222656 C 112.035156 202.519531 112.035156 180.882812 112.035156 176.191406 C 112.265625 174.8125 110.734375 167.726562 116.957031 162.5 C 128.160156 153.039062 127.144531 154.015625 128.042969 153.117188 L 118.488281 153.117188 C 113.550781 153.117188 109.546875 149.117188 109.546875 144.175781 C 109.546875 141.417969 111.789062 139.175781 114.546875 139.175781 L 127.433594 139.175781 C 130.152344 139.175781 132.351562 141.339844 132.410156 144.042969 L 138.976562 126.730469 C 141.179688 120.949219 146.695312 117.136719 152.878906 117.136719 L 222.195312 117.136719 C 228.382812 117.136719 233.914062 120.949219 236.097656 126.730469 L 242.667969 144.042969 C 242.742188 141.339844 244.925781 139.175781 247.644531 139.175781 L 260.550781 139.175781 C 268.6875 139.175781 266.429688 153.117188 256.585938 153.117188 L 247.050781 153.117188 C 254.308594 160.488281 263.039062 163.265625 263.039062 173.050781 Z M 97.273438 83.285156 L 97.273438 207.5 C 97.714844 259.832031 139.917969 292.957031 187.519531 315.457031 C 234.96875 293.035156 277.34375 259.945312 277.785156 207.460938 L 277.785156 83.285156 C 233.511719 48.683594 141.027344 49.085938 97.273438 83.285156 " fill-opacity="1" fill-rule="nonzero"/><g clip-path="url(#1d70218576)"><path fill="#ffffff" d="M 286.515625 207.5 C 286.304688 232.179688 278.050781 253.742188 261.296875 273.484375 C 234.355469 305.210938 189.703125 323.84375 187.519531 325.070312 C 184.761719 323.519531 140.796875 305.347656 113.761719 273.484375 C 97.003906 253.742188 88.753906 232.179688 88.542969 207.535156 L 88.542969 79.128906 C 89.882812 78.246094 103.171875 65.265625 131.222656 56.707031 C 177.601562 42.554688 246.363281 46.191406 284.90625 77.808594 L 286.515625 79.128906 Z M 187.519531 37.5 C 147.84375 37.5 105.027344 47.589844 77.207031 74.128906 L 77.207031 207.554688 C 77.644531 261.917969 114.410156 305.230469 187.519531 337.496094 C 260.628906 305.230469 297.410156 261.917969 297.851562 207.554688 L 297.851562 74.128906 C 270.027344 47.589844 227.214844 37.5 187.519531 37.5 " fill-opacity="1" fill-rule="nonzero"/></g></svg>