<svg xmlns="http://www.w3.org/2000/svg" xmlns:xlink="http://www.w3.org/1999/xlink" width="500" zoomAndPan="magnify" viewBox="0 0 375 374.999991" height="500" preserveAspectRatio="xMidYMid meet" version="1.0"><defs><clipPath id="6844a9011d"><path d="M 47.0625 158 L 328.3125 158 L 328.3125 337.5 L 47.0625 337.5 Z M 47.0625 158 " clip-rule="nonzero"/></clipPath><clipPath id="0682943725"><path d="M 181 37.5 L 195 37.5 L 195 64 L 181 64 Z M 181 37.5 " clip-rule="nonzero"/></clipPath></defs><g clip-path="url(#6844a9011d)"><path fill="#ffffff" d="M 321.910156 222.605469 L 269.113281 222.605469 L 262.210938 199.691406 C 254.988281 175.5625 232.363281 158.777344 207.117188 158.777344 L 168.128906 158.777344 C 142.882812 158.777344 120.257812 175.628906 113.035156 199.691406 L 106.132812 222.605469 L 53.464844 222.605469 C 49.949219 222.605469 47.074219 225.480469 47.074219 228.988281 L 47.074219 254.519531 C 47.074219 258.03125 49.949219 260.902344 53.464844 260.902344 L 123.773438 260.902344 C 125.5 260.902344 127.097656 260.203125 128.308594 259.054688 L 138.984375 248.394531 L 133.808594 274.246094 L 101.976562 267.863281 C 91.625 265.820312 80.949219 268.4375 72.769531 275.136719 C 64.585938 281.839844 59.921875 291.734375 59.921875 302.328125 C 59.921875 321.734375 75.707031 337.4375 95.074219 337.4375 L 280.429688 337.4375 C 299.792969 337.4375 315.582031 321.671875 315.582031 302.328125 C 315.582031 282.988281 299.859375 267.160156 280.492188 267.160156 C 278.128906 267.160156 275.761719 267.414062 273.460938 267.863281 L 241.632812 274.179688 L 236.453125 248.328125 L 247.128906 258.988281 C 248.34375 260.203125 249.941406 260.839844 251.667969 260.839844 L 321.972656 260.839844 C 325.488281 260.839844 328.363281 257.96875 328.363281 254.457031 L 328.363281 228.925781 C 328.363281 225.414062 325.488281 222.542969 321.972656 222.542969 Z M 187.6875 324.734375 L 95.011719 324.734375 C 82.675781 324.734375 72.640625 314.710938 72.640625 302.394531 C 72.640625 295.691406 75.644531 289.371094 80.820312 285.097656 C 84.847656 281.777344 89.898438 280.054688 95.011719 280.054688 C 96.480469 280.054688 97.949219 280.179688 99.421875 280.5 L 187.6875 298.117188 L 187.6875 324.796875 Z M 180.464844 240.925781 C 168.640625 238.179688 159.308594 228.863281 156.5625 217.054688 C 168.386719 219.796875 177.714844 229.117188 180.464844 240.925781 Z M 179.378906 215.136719 C 181.933594 209.265625 185.003906 202.945312 187.6875 197.777344 C 194.527344 211.054688 200.46875 224.585938 200.46875 228.988281 C 200.46875 233.96875 197.53125 238.246094 193.375 240.351562 C 191.648438 230.457031 186.601562 221.648438 179.441406 215.136719 Z M 187.6875 254.519531 C 188.644531 254.519531 189.476562 254.519531 190.371094 254.394531 C 201.367188 253.820312 211.65625 249.222656 219.324219 241.4375 C 220.09375 240.671875 220.859375 239.839844 221.5625 239.011719 L 229.105469 276.796875 L 187.75 285.03125 L 146.398438 276.796875 L 153.941406 239.011719 C 162.121094 248.519531 174.265625 254.519531 187.75 254.519531 Z M 211.398438 219.925781 C 213.765625 218.710938 216.195312 217.628906 218.8125 217.054688 C 217.792969 221.394531 215.9375 225.414062 213.253906 228.988281 C 213.253906 226.628906 212.550781 223.4375 211.398438 219.925781 Z M 275.953125 280.4375 C 277.425781 280.117188 278.957031 279.988281 280.429688 279.988281 C 292.699219 279.988281 302.734375 290.011719 302.734375 302.394531 C 302.734375 314.777344 292.699219 324.734375 280.363281 324.734375 L 200.46875 324.734375 L 200.46875 295.5 Z M 315.515625 248.136719 L 254.222656 248.136719 L 230.511719 224.457031 C 230.511719 224.457031 230.191406 224.265625 230 224.074219 C 231.53125 219.542969 232.363281 214.753906 232.363281 209.777344 C 232.363281 206.265625 229.488281 203.394531 225.972656 203.394531 C 219.199219 203.394531 212.679688 204.925781 206.671875 207.796875 C 201.621094 196.308594 195.101562 184.5625 193.183594 181.117188 C 192.035156 179.136719 189.925781 177.863281 187.625 177.863281 C 185.324219 177.863281 183.214844 179.074219 182.0625 181.117188 C 181.679688 181.753906 174.203125 195.097656 168.578125 207.796875 C 162.695312 204.988281 156.175781 203.394531 149.273438 203.394531 C 145.757812 203.394531 142.882812 206.265625 142.882812 209.777344 C 142.882812 214.753906 143.714844 219.542969 145.246094 224.074219 C 145.054688 224.203125 144.863281 224.265625 144.738281 224.457031 L 121.023438 248.136719 L 59.859375 248.136719 L 59.859375 235.371094 L 110.988281 235.371094 C 113.800781 235.371094 116.292969 233.519531 117.125 230.839844 L 125.371094 203.394531 C 130.996094 184.628906 148.570312 171.542969 168.195312 171.542969 L 207.179688 171.542969 C 226.804688 171.542969 244.378906 184.628906 250.003906 203.394531 L 258.25 230.839844 C 259.082031 233.519531 261.574219 235.371094 264.386719 235.371094 L 315.515625 235.371094 Z M 315.515625 248.136719 " fill-opacity="1" fill-rule="nonzero"/></g><path fill="#ffffff" d="M 149.339844 114.097656 C 149.339844 135.222656 166.53125 152.394531 187.6875 152.394531 C 208.84375 152.394531 226.035156 135.222656 226.035156 114.097656 C 226.035156 92.96875 208.84375 75.796875 187.6875 75.796875 C 166.53125 75.796875 149.339844 92.96875 149.339844 114.097656 Z M 187.6875 88.5625 C 201.8125 88.5625 213.253906 99.988281 213.253906 114.097656 C 213.253906 128.203125 201.8125 139.628906 187.6875 139.628906 C 173.5625 139.628906 162.121094 128.203125 162.121094 114.097656 C 162.121094 99.988281 173.5625 88.5625 187.6875 88.5625 Z M 187.6875 88.5625 " fill-opacity="1" fill-rule="nonzero"/><g clip-path="url(#0682943725)"><path fill="#ffffff" d="M 181.296875 37.5 L 194.078125 37.5 L 194.078125 63.03125 L 181.296875 63.03125 Z M 181.296875 37.5 " fill-opacity="1" fill-rule="nonzero"/></g><path fill="#ffffff" d="M 128.929688 64.464844 L 137.96875 55.4375 L 156.046875 73.492188 L 147.007812 82.519531 Z M 128.929688 64.464844 " fill-opacity="1" fill-rule="nonzero"/><path fill="#ffffff" d="M 110.988281 107.710938 L 136.554688 107.710938 L 136.554688 120.480469 L 110.988281 120.480469 Z M 110.988281 107.710938 " fill-opacity="1" fill-rule="nonzero"/><path fill="#ffffff" d="M 238.820312 107.710938 L 264.386719 107.710938 L 264.386719 120.480469 L 238.820312 120.480469 Z M 238.820312 107.710938 " fill-opacity="1" fill-rule="nonzero"/><path fill="#ffffff" d="M 219.292969 73.5 L 237.371094 55.449219 L 246.410156 64.476562 L 228.332031 82.527344 Z M 219.292969 73.5 " fill-opacity="1" fill-rule="nonzero"/></svg>