<svg xmlns="http://www.w3.org/2000/svg" xmlns:xlink="http://www.w3.org/1999/xlink" width="500" zoomAndPan="magnify" viewBox="0 0 375 374.999991" height="500" preserveAspectRatio="xMidYMid meet" version="1.0"><defs><clipPath id="c37cbd0be4"><path d="M 37.5 89.589844 L 337.5 89.589844 L 337.5 285 L 37.5 285 Z M 37.5 89.589844 " clip-rule="nonzero"/></clipPath></defs><path fill="#ffffff" d="M 179.375 204.175781 L 173.617188 204.175781 C 171.960938 204.175781 170.457031 203.492188 169.363281 202.398438 L 169.191406 202.234375 C 168.203125 201.164062 167.589844 199.726562 167.589844 198.148438 C 167.589844 195.96875 165.824219 194.195312 163.636719 194.195312 C 161.449219 194.195312 159.683594 195.960938 159.683594 198.148438 C 159.683594 201.839844 161.148438 205.214844 163.53125 207.722656 L 163.777344 207.992188 C 166.0625 210.273438 169.140625 211.765625 172.546875 212.027344 L 172.546875 216.496094 C 172.546875 218.671875 174.3125 220.449219 176.5 220.449219 C 178.6875 220.449219 180.453125 218.679688 180.453125 216.496094 L 180.453125 212.027344 C 183.859375 211.765625 186.9375 210.273438 189.222656 207.992188 L 189.222656 207.976562 C 191.746094 205.453125 193.3125 201.972656 193.3125 198.148438 C 193.3125 194.324219 191.738281 190.84375 189.222656 188.320312 L 189.207031 188.304688 C 186.683594 185.78125 183.203125 184.21875 179.375 184.21875 L 173.617188 184.21875 C 171.960938 184.21875 170.457031 183.535156 169.363281 182.441406 L 169.191406 182.277344 C 168.203125 181.207031 167.589844 179.769531 167.589844 178.191406 C 167.589844 176.53125 168.261719 175.023438 169.347656 173.9375 L 169.363281 173.9375 C 170.457031 172.847656 171.960938 172.164062 173.617188 172.164062 L 179.375 172.164062 C 181.039062 172.164062 182.542969 172.847656 183.636719 173.933594 C 184.722656 175.023438 185.402344 176.535156 185.402344 178.191406 C 185.402344 180.371094 187.171875 182.144531 189.355469 182.144531 C 191.542969 182.144531 193.3125 180.378906 193.3125 178.191406 C 193.3125 174.367188 191.738281 170.886719 189.222656 168.363281 L 189.207031 168.347656 C 186.921875 166.0625 183.851562 164.582031 180.453125 164.3125 L 180.453125 159.84375 C 180.453125 157.65625 178.6875 155.890625 176.5 155.890625 C 174.3125 155.890625 172.546875 157.65625 172.546875 159.84375 L 172.546875 164.3125 C 169.140625 164.574219 166.0625 166.0625 163.785156 168.355469 C 161.253906 170.886719 159.683594 174.367188 159.683594 178.183594 C 159.683594 181.875 161.148438 185.25 163.53125 187.757812 L 163.777344 188.027344 C 166.300781 190.550781 169.792969 192.113281 173.625 192.113281 L 179.382812 192.113281 C 181.046875 192.113281 182.550781 192.796875 183.644531 193.882812 C 184.730469 194.972656 185.410156 196.484375 185.410156 198.140625 C 185.410156 199.800781 184.730469 201.308594 183.636719 202.390625 C 182.535156 203.492188 181.03125 204.175781 179.375 204.175781 Z M 179.375 204.175781 " fill-opacity="1" fill-rule="nonzero"/><path fill="#ffffff" d="M 176.5 238.285156 C 190.34375 238.285156 202.878906 232.671875 211.949219 223.605469 C 221.023438 214.542969 226.632812 202.011719 226.632812 188.167969 C 226.632812 174.328125 221.015625 161.796875 211.949219 152.734375 C 202.878906 143.660156 190.34375 138.054688 176.5 138.054688 C 162.65625 138.054688 150.121094 143.667969 141.050781 152.734375 C 131.976562 161.804688 126.367188 174.335938 126.367188 188.167969 C 126.367188 202.011719 131.984375 214.542969 141.050781 223.605469 C 150.121094 232.679688 162.65625 238.285156 176.5 238.285156 Z M 147.386719 159.066406 C 154.835938 151.617188 165.132812 147.011719 176.5 147.011719 C 187.867188 147.011719 198.164062 151.625 205.613281 159.066406 C 213.0625 166.511719 217.667969 176.804688 217.667969 188.167969 C 217.667969 199.53125 213.054688 209.824219 205.613281 217.273438 C 198.164062 224.722656 187.867188 229.324219 176.5 229.324219 C 165.132812 229.324219 154.835938 224.714844 147.386719 217.273438 C 139.9375 209.824219 135.332031 199.53125 135.332031 188.167969 C 135.324219 176.804688 139.9375 166.511719 147.386719 159.066406 Z M 147.386719 159.066406 " fill-opacity="1" fill-rule="nonzero"/><g clip-path="url(#c37cbd0be4)"><path fill="#ffffff" d="M 336.980469 225.179688 L 315.445312 120.976562 L 315.445312 120.957031 C 315.445312 120.320312 315.3125 119.714844 315.070312 119.167969 L 309.769531 93.535156 C 309.277344 91.117188 306.917969 89.5625 304.507812 90.054688 L 176.582031 116.480469 L 42.03125 116.480469 C 39.5625 116.480469 37.554688 118.484375 37.554688 120.957031 L 37.554688 255.382812 C 37.554688 257.855469 39.5625 259.859375 42.03125 259.859375 L 60.414062 259.859375 L 64.863281 281.367188 C 65.355469 283.785156 67.714844 285.339844 70.128906 284.847656 L 191.085938 259.859375 L 310.960938 259.859375 C 313.429688 259.859375 315.4375 257.855469 315.4375 255.382812 L 315.4375 234.175781 L 333.492188 230.449219 C 335.910156 229.953125 337.476562 227.597656 336.980469 225.179688 Z M 301.929688 99.703125 L 305.398438 116.480469 L 220.707031 116.480469 Z M 72.710938 275.199219 L 69.542969 259.859375 L 146.96875 259.859375 Z M 306.484375 250.90625 L 46.519531 250.90625 L 46.519531 125.441406 L 306.484375 125.441406 Z M 315.445312 225.058594 L 315.445312 165.089844 L 327.328125 222.605469 Z M 315.445312 225.058594 " fill-opacity="1" fill-rule="nonzero"/></g><path fill="#ffffff" d="M 65.066406 168.496094 C 67.535156 168.496094 69.542969 166.492188 69.542969 164.019531 L 69.542969 147.238281 L 86.332031 147.238281 C 88.800781 147.238281 90.808594 145.230469 90.808594 142.761719 C 90.808594 140.292969 88.800781 138.285156 86.332031 138.285156 L 65.066406 138.285156 C 62.59375 138.285156 60.585938 140.292969 60.585938 142.761719 L 60.585938 164.019531 C 60.582031 166.492188 62.585938 168.496094 65.066406 168.496094 Z M 65.066406 168.496094 " fill-opacity="1" fill-rule="nonzero"/><path fill="#ffffff" d="M 86.332031 229.101562 L 69.542969 229.101562 L 69.542969 212.316406 C 69.542969 209.847656 67.535156 207.84375 65.066406 207.84375 C 62.59375 207.84375 60.585938 209.847656 60.585938 212.316406 L 60.585938 233.578125 C 60.585938 236.046875 62.59375 238.054688 65.066406 238.054688 L 86.332031 238.054688 C 88.800781 238.054688 90.808594 236.046875 90.808594 233.578125 C 90.808594 231.105469 88.800781 229.101562 86.332031 229.101562 Z M 86.332031 229.101562 " fill-opacity="1" fill-rule="nonzero"/><path fill="#ffffff" d="M 266.660156 147.238281 L 283.449219 147.238281 L 283.449219 164.019531 C 283.449219 166.492188 285.457031 168.496094 287.929688 168.496094 C 290.398438 168.496094 292.40625 166.492188 292.40625 164.019531 L 292.40625 142.761719 C 292.40625 140.292969 290.398438 138.285156 287.929688 138.285156 L 266.660156 138.285156 C 264.191406 138.285156 262.183594 140.292969 262.183594 142.761719 C 262.183594 145.230469 264.191406 147.238281 266.660156 147.238281 Z M 266.660156 147.238281 " fill-opacity="1" fill-rule="nonzero"/><path fill="#ffffff" d="M 266.660156 238.0625 L 287.925781 238.0625 C 290.398438 238.0625 292.40625 236.054688 292.40625 233.585938 L 292.40625 212.324219 C 292.40625 209.855469 290.398438 207.847656 287.925781 207.847656 C 285.457031 207.847656 283.449219 209.855469 283.449219 212.324219 L 283.449219 229.109375 L 266.660156 229.109375 C 264.191406 229.109375 262.183594 231.113281 262.183594 233.585938 C 262.183594 236.054688 264.191406 238.0625 266.660156 238.0625 Z M 266.660156 238.0625 " fill-opacity="1" fill-rule="nonzero"/></svg>