<svg xmlns="http://www.w3.org/2000/svg" xmlns:xlink="http://www.w3.org/1999/xlink" width="500" zoomAndPan="magnify" viewBox="0 0 375 374.999991" height="500" preserveAspectRatio="xMidYMid meet" version="1.0"><defs><clipPath id="f7fe78b015"><path d="M 48.636719 67.203125 L 209.136719 67.203125 L 209.136719 287.703125 L 48.636719 287.703125 Z M 48.636719 67.203125 " clip-rule="nonzero"/></clipPath><clipPath id="2c98c04f6c"><path d="M 210 67.203125 L 346 67.203125 L 346 287.703125 L 210 287.703125 Z M 210 67.203125 " clip-rule="nonzero"/></clipPath></defs><path fill="#ffffff" d="M 206.324219 168.546875 C 206.324219 227.714844 182.453125 268.804688 133.789062 268.804688 C 84.246094 268.804688 62.441406 224.140625 62.132812 169.738281 C 62.132812 113.835938 85.433594 70.054688 134.976562 70.054688 C 185.972656 70.054688 206.324219 115.90625 206.324219 168.546875 Z M 106.929688 169.738281 C 106.929688 213.824219 117.570312 234.8125 134.667969 234.8125 C 152.078125 234.8125 161.484375 212.945312 161.484375 169.164062 C 161.484375 126.574219 152.339844 104.089844 134.363281 104.089844 C 118.140625 104.046875 106.929688 124.769531 106.929688 169.738281 Z M 106.929688 169.738281 " fill-opacity="1" fill-rule="nonzero"/><g clip-path="url(#f7fe78b015)"><path fill="#d4d1d2" d="M 209.136719 168.546875 C 209.136719 139.933594 203.246094 115.554688 192.125 98.050781 C 185.925781 88.308594 178.144531 80.769531 169.003906 75.609375 C 159.199219 70.054688 147.726562 67.234375 134.976562 67.234375 C 110.667969 67.234375 90.839844 77.636719 77.609375 97.34375 C 77.566406 97.390625 77.566406 97.433594 77.519531 97.476562 C 77.519531 97.476562 77.476562 97.523438 77.476562 97.523438 C 77.433594 97.566406 77.433594 97.609375 77.390625 97.652344 C 77.390625 97.652344 77.34375 97.699219 77.34375 97.699219 C 77.300781 97.742188 77.300781 97.785156 77.257812 97.832031 C 77.257812 97.832031 77.214844 97.875 77.214844 97.875 C 77.167969 97.917969 77.167969 97.960938 77.125 98.007812 C 77.125 98.007812 77.082031 98.050781 77.082031 98.050781 C 77.039062 98.09375 77.039062 98.140625 76.992188 98.183594 C 76.992188 98.183594 76.949219 98.226562 76.949219 98.226562 C 76.90625 98.269531 76.90625 98.316406 76.859375 98.359375 C 76.859375 98.359375 76.816406 98.402344 76.816406 98.402344 C 76.773438 98.449219 76.773438 98.492188 76.730469 98.535156 C 76.730469 98.535156 76.683594 98.578125 76.683594 98.578125 C 76.640625 98.625 76.640625 98.667969 76.597656 98.710938 C 76.597656 98.710938 76.554688 98.757812 76.554688 98.757812 C 76.507812 98.800781 76.507812 98.84375 76.464844 98.886719 C 76.464844 98.886719 76.421875 98.933594 76.421875 98.933594 C 76.378906 98.976562 76.378906 99.019531 76.332031 99.066406 C 76.332031 99.066406 76.289062 99.109375 76.289062 99.109375 C 76.246094 99.152344 76.246094 99.195312 76.203125 99.242188 C 76.203125 99.242188 76.15625 99.285156 76.15625 99.285156 C 76.113281 99.328125 76.113281 99.375 76.070312 99.417969 C 76.070312 99.417969 76.027344 99.460938 76.027344 99.460938 C 75.980469 99.503906 75.980469 99.550781 75.9375 99.59375 C 75.9375 99.59375 75.894531 99.636719 75.894531 99.636719 C 75.851562 99.683594 75.851562 99.726562 75.804688 99.769531 C 75.804688 99.769531 75.761719 99.8125 75.761719 99.8125 C 75.71875 99.859375 75.71875 99.902344 75.675781 99.945312 C 75.675781 99.945312 75.628906 99.992188 75.628906 99.992188 C 75.585938 100.035156 75.585938 100.078125 75.542969 100.121094 C 75.542969 100.121094 75.5 100.167969 75.5 100.167969 C 75.453125 100.210938 75.453125 100.253906 75.410156 100.300781 C 75.410156 100.300781 75.367188 100.34375 75.367188 100.34375 C 75.324219 100.386719 75.324219 100.429688 75.277344 100.476562 C 75.277344 100.476562 75.234375 100.519531 75.234375 100.519531 C 75.191406 100.5625 75.191406 100.609375 75.148438 100.652344 C 75.148438 100.652344 75.101562 100.695312 75.101562 100.695312 C 75.058594 100.738281 75.058594 100.785156 75.015625 100.828125 C 75.015625 100.828125 74.972656 100.871094 74.972656 100.871094 C 74.925781 100.917969 74.925781 100.960938 74.882812 101.003906 C 74.882812 101.003906 74.839844 101.046875 74.839844 101.046875 C 74.796875 101.09375 74.796875 101.136719 74.75 101.179688 C 74.75 101.179688 74.707031 101.226562 74.707031 101.226562 C 74.664062 101.269531 74.664062 101.3125 74.621094 101.355469 C 74.621094 101.355469 74.574219 101.402344 74.574219 101.402344 C 74.53125 101.445312 74.53125 101.488281 74.488281 101.535156 C 74.488281 101.535156 74.445312 101.578125 74.445312 101.578125 C 74.398438 101.621094 74.398438 101.664062 74.355469 101.710938 C 74.355469 101.710938 74.3125 101.753906 74.3125 101.753906 C 74.269531 101.796875 74.269531 101.84375 74.222656 101.886719 C 74.222656 101.886719 74.179688 101.929688 74.179688 101.929688 C 74.136719 101.972656 74.136719 102.019531 74.09375 102.0625 C 74.09375 102.0625 74.046875 102.105469 74.046875 102.105469 C 74.003906 102.152344 74.003906 102.195312 73.960938 102.238281 C 73.960938 102.238281 73.914062 102.28125 73.914062 102.28125 C 73.871094 102.328125 73.871094 102.371094 73.828125 102.414062 C 73.828125 102.414062 73.785156 102.460938 73.785156 102.460938 C 73.738281 102.503906 73.738281 102.546875 73.695312 102.589844 C 73.695312 102.589844 73.652344 102.636719 73.652344 102.636719 C 73.609375 102.679688 73.609375 102.722656 73.5625 102.769531 C 73.5625 102.769531 73.519531 102.8125 73.519531 102.8125 C 73.476562 102.855469 73.476562 102.898438 73.433594 102.945312 C 73.433594 102.945312 73.386719 102.988281 73.386719 102.988281 C 73.34375 103.03125 73.34375 103.078125 73.300781 103.121094 C 73.300781 103.121094 73.257812 103.164062 73.257812 103.164062 C 73.210938 103.207031 73.210938 103.253906 73.167969 103.296875 C 73.167969 103.296875 73.125 103.339844 73.125 103.339844 C 73.082031 103.386719 73.082031 103.429688 73.035156 103.472656 C 73.035156 103.472656 72.992188 103.515625 72.992188 103.515625 C 72.949219 103.5625 72.949219 103.605469 72.90625 103.648438 C 72.90625 103.648438 72.859375 103.695312 72.859375 103.695312 C 72.816406 103.738281 72.816406 103.78125 72.773438 103.824219 C 72.773438 103.824219 72.730469 103.871094 72.730469 103.871094 C 72.683594 103.914062 72.683594 103.957031 72.640625 104.003906 C 72.640625 104.003906 72.597656 104.046875 72.597656 104.046875 C 72.554688 104.089844 72.554688 104.136719 72.507812 104.179688 C 72.507812 104.179688 72.464844 104.222656 72.464844 104.222656 C 72.421875 104.265625 72.421875 104.3125 72.378906 104.355469 C 72.378906 104.355469 72.332031 104.398438 72.332031 104.398438 C 72.289062 104.445312 72.289062 104.488281 72.246094 104.53125 C 72.246094 104.53125 72.203125 104.574219 72.203125 104.574219 C 72.15625 104.621094 72.15625 104.664062 72.113281 104.707031 C 72.113281 104.707031 72.070312 104.753906 72.070312 104.753906 C 72.027344 104.796875 72.027344 104.839844 71.980469 104.882812 C 71.980469 104.882812 71.9375 104.929688 71.9375 104.929688 C 71.894531 104.972656 71.894531 105.015625 71.851562 105.0625 C 71.851562 105.0625 71.804688 105.105469 71.804688 105.105469 C 71.761719 105.148438 71.761719 105.191406 71.71875 105.238281 C 71.71875 105.238281 71.675781 105.28125 71.675781 105.28125 C 71.628906 105.324219 71.628906 105.371094 71.585938 105.414062 C 71.585938 105.414062 71.542969 105.457031 71.542969 105.457031 C 71.5 105.5 71.5 105.546875 71.453125 105.589844 C 71.453125 105.589844 71.410156 105.632812 71.410156 105.632812 C 71.367188 105.679688 71.367188 105.722656 71.324219 105.765625 C 71.324219 105.765625 71.277344 105.808594 71.277344 105.808594 C 71.234375 105.855469 71.234375 105.898438 71.191406 105.941406 C 71.191406 105.941406 71.144531 105.988281 71.144531 105.988281 C 71.101562 106.03125 71.101562 106.074219 71.058594 106.117188 C 71.058594 106.117188 71.015625 106.164062 71.015625 106.164062 C 70.96875 106.207031 70.96875 106.25 70.925781 106.296875 C 70.925781 106.296875 70.882812 106.339844 70.882812 106.339844 C 70.839844 106.382812 70.839844 106.425781 70.792969 106.472656 C 70.792969 106.472656 70.75 106.515625 70.75 106.515625 C 70.707031 106.558594 70.707031 106.605469 70.664062 106.648438 C 70.664062 106.648438 70.617188 106.691406 70.617188 106.691406 C 70.574219 106.734375 70.574219 106.78125 70.53125 106.824219 C 70.53125 106.824219 70.488281 106.867188 70.488281 106.867188 C 70.441406 106.914062 70.441406 106.957031 70.398438 107 C 70.398438 107 70.355469 107.042969 70.355469 107.042969 C 70.3125 107.089844 70.3125 107.132812 70.265625 107.175781 C 70.265625 107.175781 70.222656 107.222656 70.222656 107.222656 C 70.179688 107.265625 70.179688 107.308594 70.136719 107.351562 C 70.136719 107.351562 70.089844 107.398438 70.089844 107.398438 C 70.046875 107.441406 70.046875 107.484375 70.003906 107.53125 C 70.003906 107.53125 69.960938 107.574219 69.960938 107.574219 C 69.914062 107.617188 69.914062 107.660156 69.871094 107.707031 C 69.871094 107.707031 69.828125 107.75 69.828125 107.75 C 69.785156 107.792969 69.785156 107.839844 69.738281 107.882812 C 69.738281 107.882812 69.695312 107.925781 69.695312 107.925781 C 69.652344 107.96875 69.652344 108.015625 69.609375 108.058594 C 69.609375 108.058594 69.5625 108.101562 69.5625 108.101562 C 69.519531 108.148438 69.519531 108.191406 69.476562 108.234375 C 69.476562 108.234375 69.433594 108.277344 69.433594 108.277344 C 69.386719 108.324219 69.386719 108.367188 69.34375 108.410156 C 69.34375 108.410156 69.300781 108.457031 69.300781 108.457031 C 69.257812 108.5 69.257812 108.542969 69.210938 108.585938 C 69.210938 108.585938 69.167969 108.632812 69.167969 108.632812 C 69.125 108.675781 69.125 108.71875 69.082031 108.765625 C 69.082031 108.765625 69.035156 108.808594 69.035156 108.808594 C 68.992188 108.851562 68.992188 108.894531 68.949219 108.941406 C 68.949219 108.941406 68.90625 108.984375 68.90625 108.984375 C 68.859375 109.027344 68.859375 109.074219 68.816406 109.117188 C 68.816406 109.117188 68.773438 109.160156 68.773438 109.160156 C 68.730469 109.203125 68.730469 109.25 68.683594 109.292969 C 68.683594 109.292969 68.640625 109.335938 68.640625 109.335938 C 68.597656 109.382812 68.597656 109.425781 68.554688 109.46875 C 68.554688 109.46875 68.507812 109.511719 68.507812 109.511719 C 68.464844 109.558594 68.464844 109.601562 68.421875 109.644531 C 68.421875 109.644531 68.375 109.691406 68.375 109.691406 C 68.332031 109.734375 68.332031 109.777344 68.289062 109.820312 C 68.289062 109.820312 68.246094 109.867188 68.246094 109.867188 C 68.199219 109.910156 68.199219 109.953125 68.15625 110 C 68.15625 110 68.113281 110.042969 68.113281 110.042969 C 68.070312 110.085938 68.070312 110.128906 68.023438 110.175781 C 68.023438 110.175781 67.980469 110.21875 67.980469 110.21875 C 67.9375 110.261719 67.9375 110.308594 67.894531 110.351562 C 67.894531 110.351562 67.847656 110.394531 67.847656 110.394531 C 67.804688 110.4375 67.804688 110.484375 67.761719 110.527344 C 67.761719 110.527344 67.71875 110.570312 67.71875 110.570312 C 67.671875 110.617188 67.671875 110.660156 67.628906 110.703125 C 67.628906 110.703125 67.585938 110.746094 67.585938 110.746094 C 67.542969 110.792969 67.542969 110.835938 67.496094 110.878906 C 67.496094 110.878906 67.453125 110.925781 67.453125 110.925781 C 67.410156 110.96875 67.410156 111.011719 67.367188 111.054688 C 67.367188 111.054688 67.320312 111.101562 67.320312 111.101562 C 67.277344 111.144531 67.277344 111.1875 67.234375 111.234375 C 67.234375 111.234375 67.191406 111.277344 67.191406 111.277344 C 67.144531 111.320312 67.144531 111.363281 67.101562 111.410156 C 67.101562 111.410156 67.058594 111.453125 67.058594 111.453125 C 67.015625 111.496094 67.015625 111.542969 66.96875 111.585938 C 66.96875 111.585938 66.925781 111.628906 66.925781 111.628906 C 66.882812 111.675781 66.882812 111.71875 66.839844 111.761719 C 66.839844 111.761719 66.792969 111.804688 66.792969 111.804688 C 66.75 111.851562 66.75 111.894531 66.707031 111.9375 C 66.707031 111.9375 66.664062 111.984375 66.664062 111.984375 C 66.617188 112.027344 66.617188 112.070312 66.574219 112.113281 C 66.574219 112.113281 66.53125 112.160156 66.53125 112.160156 C 66.488281 112.203125 66.488281 112.246094 66.441406 112.292969 C 66.441406 112.292969 66.398438 112.335938 66.398438 112.335938 C 66.355469 112.378906 66.355469 112.421875 66.3125 112.46875 C 66.3125 112.46875 66.265625 112.511719 66.265625 112.511719 C 66.222656 112.554688 66.222656 112.601562 66.179688 112.644531 C 66.179688 112.644531 66.136719 112.6875 66.136719 112.6875 C 66.089844 112.730469 66.089844 112.777344 66.046875 112.820312 C 66.046875 112.820312 66.003906 112.863281 66.003906 112.863281 C 65.960938 112.910156 65.960938 112.953125 65.914062 112.996094 C 65.914062 112.996094 65.871094 113.039062 65.871094 113.039062 C 65.828125 113.085938 65.828125 113.128906 65.785156 113.171875 C 65.785156 113.171875 65.738281 113.21875 65.738281 113.21875 C 65.695312 113.261719 65.695312 113.304688 65.652344 113.347656 C 65.652344 113.347656 65.609375 113.394531 65.609375 113.394531 C 65.5625 113.4375 65.5625 113.480469 65.519531 113.527344 C 65.519531 113.527344 65.476562 113.570312 65.476562 113.570312 C 65.429688 113.613281 65.429688 113.65625 65.386719 113.703125 C 65.386719 113.703125 65.34375 113.746094 65.34375 113.746094 C 65.300781 113.789062 65.300781 113.835938 65.253906 113.878906 C 65.253906 113.878906 65.210938 113.921875 65.210938 113.921875 C 65.167969 113.964844 65.167969 114.011719 65.125 114.054688 C 65.125 114.054688 65.078125 114.097656 65.078125 114.097656 C 54.96875 131.292969 48.636719 156.335938 48.636719 185.785156 C 48.816406 214.839844 54.96875 239.574219 66.441406 257.253906 C 79.367188 277.136719 98.972656 287.671875 123.109375 287.671875 C 147.285156 287.671875 166.9375 277.578125 179.949219 258.488281 C 179.992188 258.441406 180.035156 258.398438 180.035156 258.308594 C 180.082031 258.265625 180.125 258.222656 180.125 258.132812 C 180.167969 258.089844 180.210938 258.046875 180.210938 257.957031 C 180.257812 257.914062 180.300781 257.871094 180.300781 257.78125 C 180.34375 257.738281 180.386719 257.691406 180.386719 257.605469 C 180.433594 257.5625 180.476562 257.515625 180.476562 257.429688 C 180.519531 257.382812 180.5625 257.339844 180.5625 257.253906 C 180.609375 257.207031 180.652344 257.164062 180.652344 257.074219 C 180.695312 257.03125 180.738281 256.988281 180.738281 256.898438 C 180.785156 256.855469 180.828125 256.8125 180.828125 256.722656 C 180.871094 256.679688 180.914062 256.636719 180.914062 256.546875 C 180.960938 256.503906 181.003906 256.457031 181.003906 256.371094 C 181.046875 256.328125 181.09375 256.28125 181.09375 256.195312 C 181.136719 256.148438 181.179688 256.105469 181.179688 256.019531 C 181.222656 255.972656 181.269531 255.929688 181.269531 255.839844 C 181.3125 255.796875 181.355469 255.753906 181.355469 255.664062 C 181.398438 255.621094 181.445312 255.578125 181.445312 255.488281 C 181.488281 255.445312 181.53125 255.402344 181.53125 255.3125 C 181.574219 255.269531 181.621094 255.222656 181.621094 255.136719 C 181.664062 255.09375 181.707031 255.046875 181.707031 254.960938 C 181.75 254.914062 181.796875 254.871094 181.796875 254.785156 C 181.839844 254.738281 181.882812 254.695312 181.882812 254.605469 C 181.925781 254.5625 181.972656 254.519531 181.972656 254.429688 C 182.015625 254.386719 182.058594 254.34375 182.058594 254.253906 C 182.101562 254.210938 182.148438 254.164062 182.148438 254.078125 C 182.191406 254.035156 182.234375 253.988281 182.234375 253.902344 C 182.277344 253.855469 182.324219 253.8125 182.324219 253.726562 C 182.367188 253.679688 182.410156 253.636719 182.410156 253.546875 C 182.453125 253.503906 182.5 253.460938 182.5 253.371094 C 182.542969 253.328125 182.585938 253.285156 182.585938 253.195312 C 182.628906 253.152344 182.675781 253.109375 182.675781 253.019531 C 182.71875 252.976562 182.761719 252.929688 182.761719 252.84375 C 182.804688 252.800781 182.851562 252.753906 182.851562 252.667969 C 182.894531 252.621094 182.9375 252.578125 182.9375 252.492188 C 182.980469 252.445312 183.027344 252.402344 183.027344 252.3125 C 183.070312 252.269531 183.113281 252.226562 183.113281 252.136719 C 183.15625 252.09375 183.203125 252.050781 183.203125 251.960938 C 183.246094 251.917969 183.289062 251.875 183.289062 251.785156 C 183.332031 251.742188 183.378906 251.695312 183.378906 251.609375 C 183.421875 251.566406 183.464844 251.519531 183.464844 251.433594 C 183.511719 251.386719 183.554688 251.34375 183.554688 251.257812 C 183.597656 251.210938 183.640625 251.167969 183.640625 251.078125 C 183.6875 251.035156 183.730469 250.992188 183.730469 250.902344 C 183.773438 250.859375 183.816406 250.816406 183.816406 250.726562 C 183.863281 250.683594 183.90625 250.640625 183.90625 250.550781 C 183.949219 250.507812 183.992188 250.460938 183.992188 250.375 C 184.039062 250.332031 184.082031 250.285156 184.082031 250.199219 C 184.125 250.152344 184.167969 250.109375 184.167969 250.023438 C 184.214844 249.976562 184.257812 249.933594 184.257812 249.84375 C 184.300781 249.800781 184.34375 249.757812 184.34375 249.667969 C 184.390625 249.625 184.433594 249.582031 184.433594 249.492188 C 184.476562 249.449219 184.519531 249.40625 184.519531 249.316406 C 184.566406 249.273438 184.609375 249.226562 184.609375 249.140625 C 184.652344 249.097656 184.695312 249.050781 184.695312 248.964844 C 184.742188 248.917969 184.785156 248.875 184.785156 248.789062 C 184.828125 248.742188 184.871094 248.699219 184.871094 248.609375 C 184.917969 248.566406 184.960938 248.523438 184.960938 248.433594 C 185.003906 248.390625 185.046875 248.347656 185.046875 248.257812 C 185.09375 248.214844 185.136719 248.171875 185.136719 248.082031 C 185.179688 248.039062 185.222656 247.992188 185.222656 247.90625 C 185.269531 247.863281 185.3125 247.816406 185.3125 247.730469 C 185.355469 247.683594 185.398438 247.640625 185.398438 247.554688 C 185.445312 247.507812 185.488281 247.464844 185.488281 247.375 C 185.53125 247.332031 185.574219 247.289062 185.574219 247.199219 C 185.621094 247.15625 185.664062 247.113281 185.664062 247.023438 C 185.707031 246.980469 185.753906 246.9375 185.753906 246.847656 C 185.796875 246.804688 185.839844 246.757812 185.839844 246.671875 C 185.882812 246.628906 185.929688 246.582031 185.929688 246.496094 C 185.972656 246.449219 186.015625 246.40625 186.015625 246.320312 C 186.058594 246.273438 186.105469 246.230469 186.105469 246.140625 C 186.148438 246.097656 186.191406 246.054688 186.191406 245.964844 C 186.234375 245.921875 186.28125 245.878906 186.28125 245.789062 C 186.324219 245.746094 186.367188 245.703125 186.367188 245.613281 C 186.410156 245.570312 186.457031 245.523438 186.457031 245.4375 C 186.5 245.394531 186.542969 245.347656 186.542969 245.261719 C 186.585938 245.214844 186.632812 245.171875 186.632812 245.085938 C 186.675781 245.039062 186.71875 244.996094 186.71875 244.90625 C 186.761719 244.863281 186.808594 244.820312 186.808594 244.730469 C 186.851562 244.6875 186.894531 244.644531 186.894531 244.554688 C 186.9375 244.511719 186.984375 244.464844 186.984375 244.378906 C 187.027344 244.335938 187.070312 244.289062 187.070312 244.203125 C 187.113281 244.15625 187.160156 244.113281 187.160156 244.027344 C 187.203125 243.980469 187.246094 243.9375 187.246094 243.847656 C 187.289062 243.804688 187.335938 243.761719 187.335938 243.671875 C 187.378906 243.628906 187.421875 243.585938 187.421875 243.496094 C 187.464844 243.453125 187.511719 243.410156 187.511719 243.320312 C 187.554688 243.277344 187.597656 243.230469 187.597656 243.144531 C 187.640625 243.101562 187.6875 243.054688 187.6875 242.96875 C 187.730469 242.921875 187.773438 242.878906 187.773438 242.792969 C 187.816406 242.746094 187.863281 242.703125 187.863281 242.613281 C 187.90625 242.570312 187.949219 242.527344 187.949219 242.4375 C 187.992188 242.394531 188.039062 242.351562 188.039062 242.261719 C 188.082031 242.21875 188.125 242.175781 188.125 242.085938 C 188.171875 242.042969 188.214844 241.996094 188.214844 241.910156 C 188.257812 241.867188 188.300781 241.820312 188.300781 241.734375 C 202.71875 224.671875 209.136719 199.144531 209.136719 168.546875 Z M 123.679688 122.917969 C 143.769531 122.917969 147.988281 156.777344 147.988281 185.167969 C 147.988281 200.46875 146.800781 217.308594 142.671875 229.695312 C 140.339844 231.152344 137.660156 231.945312 134.625 231.945312 C 118.578125 231.945312 109.699219 209.859375 109.699219 169.695312 C 109.699219 151 111.679688 136.054688 115.371094 125.429688 C 117.921875 123.796875 120.691406 122.917969 123.679688 122.917969 Z M 123.679688 122.917969 " fill-opacity="1" fill-rule="nonzero"/></g><path fill="#ffffff" d="M 206.324219 168.546875 C 206.324219 227.714844 182.453125 268.804688 133.789062 268.804688 C 84.246094 268.804688 62.441406 224.140625 62.132812 169.738281 C 62.132812 113.835938 85.433594 70.054688 134.976562 70.054688 C 185.972656 70.054688 206.324219 115.90625 206.324219 168.546875 Z M 106.929688 169.738281 C 106.929688 213.824219 117.570312 234.8125 134.667969 234.8125 C 152.078125 234.8125 161.484375 212.945312 161.484375 169.164062 C 161.484375 126.574219 152.339844 104.089844 134.363281 104.089844 C 118.140625 104.046875 106.929688 124.769531 106.929688 169.738281 Z M 106.929688 169.738281 " fill-opacity="1" fill-rule="nonzero"/><path fill="#d4d1d2" d="M 114.84375 82.3125 C 115.152344 83.371094 114.578125 84.472656 113.523438 84.78125 C 113.4375 84.824219 105.742188 87.25 97.390625 94.832031 C 89.699219 101.796875 79.894531 114.714844 76.816406 136.582031 C 76.683594 137.554688 75.851562 138.257812 74.882812 138.257812 C 74.796875 138.257812 74.707031 138.257812 74.621094 138.257812 C 73.5625 138.125 72.816406 137.113281 72.949219 136.011719 C 76.246094 112.863281 86.707031 99.152344 94.929688 91.746094 C 103.898438 83.632812 112.03125 81.121094 112.382812 80.988281 C 113.4375 80.679688 114.535156 81.253906 114.84375 82.3125 Z M 195.335938 194.734375 C 194.234375 194.691406 193.3125 195.484375 193.269531 196.585938 C 192.039062 218.632812 183.378906 232.34375 176.300781 239.925781 C 168.652344 248.171875 161.222656 251.257812 161.089844 251.300781 C 160.078125 251.695312 159.59375 252.84375 159.992188 253.855469 C 160.296875 254.605469 161.046875 255.089844 161.835938 255.089844 C 162.101562 255.089844 162.320312 255.046875 162.585938 254.960938 C 162.9375 254.828125 170.804688 251.609375 179.070312 242.746094 C 186.628906 234.722656 195.90625 220.175781 197.226562 196.851562 C 197.269531 195.75 196.433594 194.824219 195.335938 194.734375 Z M 195.335938 194.734375 " fill-opacity="1" fill-rule="nonzero"/><g clip-path="url(#2c98c04f6c)"><path fill="#ffffff" d="M 252.097656 228.402344 C 257.109375 233.730469 263.332031 237.125 270.773438 238.570312 L 270.773438 187.949219 C 269.957031 187.632812 268.871094 187.269531 267.496094 186.855469 C 266.121094 186.453125 264.621094 186.09375 263.011719 185.773438 C 257.027344 184.164062 251.125 182.25 245.304688 180.074219 C 239.488281 177.898438 234.265625 174.984375 229.65625 171.351562 C 225.046875 167.71875 221.367188 163.195312 218.628906 157.789062 C 215.878906 152.378906 214.503906 145.640625 214.503906 137.554688 C 214.503906 129.316406 216.089844 122.050781 219.242188 115.769531 C 222.394531 109.472656 226.546875 104.175781 231.726562 99.902344 C 236.890625 95.617188 242.875 92.304688 249.667969 89.972656 C 256.457031 87.628906 263.496094 86.230469 270.773438 85.730469 L 270.773438 67.105469 L 285.078125 67.105469 L 285.078125 85.757812 C 292.355469 86.5625 299.1875 88.144531 305.574219 90.472656 C 311.964844 92.816406 317.585938 96.046875 322.433594 100.167969 C 327.28125 104.285156 331.238281 109.417969 334.320312 115.546875 C 337.390625 121.691406 339.167969 128.957031 339.652344 137.347656 L 305.214844 137.347656 C 305.046875 130.882812 303.035156 125.394531 299.144531 120.871094 C 295.269531 116.351562 290.578125 114.078125 285.09375 114.078125 L 285.09375 156.941406 C 287.035156 157.425781 289.007812 157.914062 291.035156 158.398438 C 293.0625 158.882812 295.203125 159.453125 297.464844 160.089844 C 309.433594 163.320312 318.640625 167.328125 325.113281 172.085938 C 331.570312 176.84375 336.347656 181.820312 339.417969 186.980469 C 342.484375 192.140625 344.304688 197.3125 344.875 202.484375 C 345.445312 207.65625 345.722656 212.246094 345.722656 216.28125 C 345.722656 219.847656 344.832031 224.3125 343.054688 229.722656 C 341.277344 235.144531 338.085938 240.414062 333.472656 245.585938 C 328.863281 250.757812 322.683594 255.363281 314.921875 259.398438 C 307.15625 263.433594 297.214844 265.847656 285.09375 266.664062 L 285.09375 287.246094 L 270.789062 287.246094 L 270.789062 266.664062 C 252.679688 265.375 238.53125 259.800781 228.351562 249.953125 C 218.15625 240.109375 212.253906 225.65625 210.644531 206.601562 L 244.847656 206.601562 C 244.667969 215.8125 247.097656 223.066406 252.097656 228.402344 Z M 262.777344 115.296875 C 260.191406 116.101562 257.847656 117.363281 255.75 119.042969 C 253.652344 120.746094 252 122.839844 250.777344 125.335938 C 249.570312 127.847656 248.957031 130.789062 248.957031 134.171875 C 248.957031 139.511719 250.652344 143.617188 254.054688 146.527344 C 257.445312 149.425781 263.027344 151.769531 270.789062 153.542969 L 270.789062 114.078125 C 268.023438 114.078125 265.359375 114.480469 262.777344 115.296875 Z M 294.1875 236.515625 C 297.339844 235.460938 300.171875 233.964844 302.671875 232.039062 C 305.171875 230.109375 307.242188 227.710938 308.851562 224.882812 C 310.464844 222.066406 311.28125 218.710938 311.28125 214.828125 C 311.28125 208.53125 309.296875 203.816406 305.339844 200.667969 C 301.382812 197.519531 294.632812 194.648438 285.09375 192.070312 L 285.09375 238.570312 C 287.996094 238.25 291.035156 237.570312 294.1875 236.515625 Z M 294.1875 236.515625 " fill-opacity="1" fill-rule="nonzero"/></g></svg>